<svg width="60" height="60" viewBox="0 0 60 60" fill="none" xmlns="http://www.w3.org/2000/svg">
<path fill-rule="evenodd" clip-rule="evenodd" d="M17.7627 49.5898C21.3099 51.8107 25.5047 53.097 30 53.097C37.0632 53.097 43.3832 49.9258 47.6203 44.9299C47.6114 44.2801 47.5714 43.3788 47.4423 42.6C47.2665 41.5518 46.9483 40.635 46.9483 40.635L47.7828 40.8019C47.7828 40.8019 47.4334 39.5 46.9772 38.4942C46.61 37.6886 46.1137 36.9631 46.1137 36.9631H46.7813C46.7813 36.9631 45.3616 34.4997 44.605 32.2899C44.5004 31.9828 45.2792 32.123 45.2792 32.123C45.2792 32.123 44.1643 29.8843 42.9426 28.7071C41.8322 27.6367 40.606 27.6166 40.606 27.6166L38.2694 25.7807C38.2694 25.7807 37.1011 23.9693 35.53 21.9999C34.9447 21.2655 33.6451 18.3614 33.2601 18.1322C32.3343 17.5781 31.5911 17.6026 31.5911 17.6026C31.5911 17.6026 32.0228 16.6635 33.427 17.9364C34.7444 19.1291 35.2629 21.6082 35.2629 21.6082C35.2629 21.6082 35.7992 16.4342 29.7552 16.4342C27.5165 16.4342 26.2502 16.9349 26.2502 16.9349L24.5812 15.7666C24.5812 15.7666 23.8713 14.6094 22.6429 14.4136C21.9264 14.3001 20.925 14.8431 20.0749 15.2659C19.4028 15.5997 18.98 16.0515 18.7196 16.5255C18.0854 17.6715 18.4059 18.9378 18.4059 18.9378L19.2404 28.1173C19.2404 28.1173 16.7368 31.442 16.7368 35.461C16.7368 39.48 18.239 40.922 18.239 43.1385C18.239 45.3549 17.2375 45.9758 17.2375 45.9758C17.2375 45.9758 17.7739 46.0181 18.2679 45.7488C18.6862 45.5196 19.0735 44.9744 19.0735 44.9744C19.0735 44.9744 18.8309 46.5099 18.4392 47.814C18.2212 48.5483 17.9452 49.1981 17.7627 49.5898Z" fill="#6D491D"/>
<path fill-rule="evenodd" clip-rule="evenodd" d="M45.5307 37.6085C45.2258 36.8007 44.5671 35.8616 44.5671 35.8616L45.2971 35.9684C45.2971 35.9684 44.7007 34.1458 43.3521 31.2684C42.3996 29.2412 41.8856 28.7093 41.5206 28.3176C41.3493 28.1263 40.942 27.7835 40.942 27.7835C40.942 27.7835 41.5807 27.8013 41.9345 27.9927C42.2884 28.1841 42.7891 28.5646 42.7891 28.5646C42.7891 28.5646 44.3201 28.3399 44.3201 25.9966C44.3201 22.8433 39.7181 23.3128 39.7181 23.3128L39.2485 22.5451L35.1939 20.3197L35.2696 21.6104C35.2696 21.6104 35.1094 20.3753 34.4974 19.2226C33.9656 18.2167 33.0376 17.2754 32.2654 17.2754C31.5933 17.2754 31.5978 17.6026 31.5978 17.6026C31.5978 17.6026 32.5302 17.6849 33.3335 18.5884C33.7096 19.0112 34.2081 19.7033 34.2081 19.7033H33.5227L31.0214 17.9364C31.0214 17.9364 30.1602 17.7695 29.0898 17.429C27.2316 16.8415 24.6547 15.938 24.2029 15.938C23.493 15.938 21.1631 17.9364 21.1631 17.9364L19.6855 18.2702C19.6855 18.2702 17.5602 18.8666 17.5602 21.646C17.5602 24.4255 19.6432 28.5958 19.6432 28.5958L23.522 35.5411L24.1473 46.4498L24.7726 49.4896C24.7726 49.4896 24.214 48.8554 23.7935 48.5461C23.3729 48.2368 23.0391 48.2123 23.0391 48.2123C23.0391 48.2123 23.5665 49.5876 23.8535 50.8783C23.9537 51.3256 24.0427 51.8485 24.1161 52.3403C25.9943 52.8344 27.966 53.097 30 53.097C36.1508 53.097 41.7387 50.6913 45.8779 46.7725C45.8556 46.4276 45.8356 46.0448 45.8289 45.642C45.7933 43.9107 45.889 41.8411 45.8712 40.9554C45.8378 39.3376 45.2525 38.739 45.2525 38.739L46.0203 39.1217C46.0203 39.1217 45.8289 38.3963 45.5307 37.6085Z" fill="url(#paint0_linear_9_1025)"/>
<path d="M34.0034 23.7223C34.0034 23.7223 34.2104 22.3804 33.9033 21.0385C33.8721 20.9005 34.5442 21.1809 34.5442 21.1809L33.5183 19.7033C33.5183 19.7033 32.4902 18.3302 31.5911 17.9364C30.5964 17.5002 30.5408 17.785 29.2056 17.3867C27.8703 16.9884 25.6828 15.5107 24.7459 15.5107C23.8091 15.5107 21.0251 17.6137 21.0251 17.6137C21.0251 17.6137 17.3889 17.5002 17.3889 21.7039C17.3889 22.8121 18.2412 25.1087 18.2412 26.1168C18.2412 27.5121 17.4 27.8926 16.9906 28.9318C16.6189 29.8798 16.679 30.6498 16.679 30.6498C16.679 30.6498 16.9394 30.1291 17.1708 29.9666C17.4023 29.8042 17.6849 29.7797 17.6849 29.7797C17.6849 29.7797 17.6359 30.2515 17.2799 30.839C17.0039 31.2996 16.343 31.7758 16.1672 32.2676C15.7844 33.3336 16.5077 34.7111 16.5077 34.7111C16.5077 34.7111 16.6011 34.2838 16.768 33.95C16.9349 33.6162 17.6715 33.0777 17.6715 33.0777C17.6715 33.0777 17.4735 34.5687 18.0966 36.9698C18.7219 39.371 19.276 39.3843 19.8568 41.06C20.4399 42.7357 20.4955 43.2475 20.4955 43.2475C20.4955 43.2475 20.6669 42.9071 20.8516 42.7357C21.0363 42.5644 21.5058 42.4798 21.5058 42.4798C21.5058 42.4798 21.4991 43.1296 21.8619 43.7015C22.1445 44.1466 22.5985 44.4403 22.9278 45.0367C23.6066 46.2696 23.226 46.8838 24.7749 48.0343C25.9588 48.9133 28.084 48.9578 28.084 48.9578C28.084 48.9578 27.8703 48.5461 27.3029 48.1055C26.7354 47.6649 26.9757 47.4245 26.9757 47.4245C26.9757 47.4245 27.9415 47.5514 30.1714 48.831C32.4012 50.1083 33.7942 51.3033 33.7942 51.3033C33.7942 51.3033 32.1074 49.2738 33.0843 48.3481C34.1503 47.34 35.2652 48.2546 36.8341 48.5906C38.3629 48.9155 39.7604 49.1737 39.7604 49.1737C39.7604 49.1737 38.2405 48.7909 36.0107 46.5611C33.7809 44.3313 32.686 43.0962 32.686 43.0962C32.686 43.0962 37.0032 43.6793 39.5468 41.7477C42.0904 39.816 41.9323 37.5862 41.9323 37.5862C41.9323 37.5862 40.7529 38.8369 39.2486 39.0483C37.742 39.2619 36.251 38.394 36.251 38.394C36.251 38.394 36.8541 38.018 37.1033 37.6975C37.3526 37.3771 37.3459 36.9876 37.3459 36.9876C37.3459 36.9876 36.3133 37.001 35.599 36.7896C34.8847 36.5759 34.2994 36.0396 33.9789 35.9662C33.812 38.3073 33.0576 40.3969 30.8879 40.3969C30.3561 40.3969 26.929 40.7952 25.6072 39.1529C24.7548 38.0936 26.1924 36.3957 25.4536 34.1592C23.2327 27.452 19.4919 18.2702 20.1128 18.2702C21.2766 18.2702 21.0741 19.0201 21.2766 19.6877C21.4457 20.2485 21.7239 20.747 21.7239 20.747C21.7239 20.747 21.4702 18.9979 22.0711 17.7561C22.5228 16.8259 24.1184 16.1939 24.9128 16.1939C25.4247 16.1939 28.0372 17.6026 29.1455 17.9364C30.2537 18.2702 30.7344 18.1567 31.787 18.6952C32.5948 19.1069 32.913 19.8435 33.0087 19.9726C33.9767 21.3078 34.0034 23.7223 34.0034 23.7223Z" fill="url(#paint1_linear_9_1025)"/>
<path d="M32.8397 30.7121C32.8397 30.7121 30.3117 18.5238 26.2771 18.5238C24.4345 18.5238 23.4353 20.313 22.4985 20.313C21.5616 20.313 21.6751 18.0409 21.6751 18.0409C21.6751 18.0409 17.754 17.8985 17.754 21.764C17.754 25.8275 20.7115 28.7293 23.0949 32.1052C24.597 34.2304 24.7705 36.1798 24.7705 36.1798C24.7705 36.1798 24.982 34.3817 23.6334 31.6223C22.4161 29.1299 19.6278 27.1115 19.6278 25.0041C19.63 23.5531 32.8397 30.7121 32.8397 30.7121Z" fill="#AE7429"/>
<path d="M30.4828 39.0572C32.6837 39.0282 33.2089 37.9089 33.1399 34.0924C33.1154 32.7327 32.9663 31.0504 32.3877 28.8651C30.3004 20.9962 26.5061 19.8034 25.883 19.8034C25.2577 19.8034 23.7244 20.8961 23.2415 21.2098C22.7586 21.5214 22.0777 21.4235 22.0777 21.4235C22.0777 21.4235 22.5139 21.6549 20.9695 22.6586C19.7477 23.453 19.6342 24.5768 19.6342 25.0018C19.6342 26.9468 22.3047 29.0653 23.384 31.0526C23.9359 32.0696 24.2496 33.0265 24.7904 35.0582C25.0152 35.9039 24.8839 38.0179 25.9698 38.581C26.831 39.0305 28.6914 39.0794 30.4828 39.0572Z" fill="#432E16"/>
<path fill-rule="evenodd" clip-rule="evenodd" d="M21.7461 20.7737C21.7461 20.7737 21.5191 20.3175 21.3611 19.7968C21.1452 19.0935 20.9182 18.2702 20.244 18.2702C19.7522 18.2702 18.8464 18.7887 18.4081 19.6054C17.7983 20.7381 17.8117 22.2758 18.575 22.2758C19.1892 22.2758 19.8033 21.29 20.4109 20.9406C21.1007 20.5422 21.7461 20.7737 21.7461 20.7737Z" fill="#EAC859"/>
<path fill-rule="evenodd" clip-rule="evenodd" d="M19.2426 29.2857C19.2426 29.2857 21.3811 31.4331 22.7475 33.792C24.1183 36.1598 23.9158 39.2997 23.9158 39.2997C23.9158 39.2997 22.407 38.512 21.5792 37.9645C21.2076 37.7175 20.9116 38.2983 20.9116 38.2983C20.9116 38.2983 20.9784 37.3348 20.7447 36.9631C20.5689 36.6805 20.0771 36.9631 20.0771 36.9631C20.0771 36.9631 20.2662 36.6182 20.244 36.2955C20.2195 35.9506 19.9102 35.6279 19.9102 35.6279C19.9102 35.6279 19.6053 35.8838 19.5764 36.2955C19.5474 36.7183 19.5764 36.9631 19.5764 36.9631C19.5764 36.9631 19.0579 36.6738 19.2426 35.7948C19.4206 34.9492 19.4095 34.1258 19.4095 34.1258C19.4095 34.1258 19.3182 34.1391 19.2426 34.2927C19.1536 34.4707 19.0757 34.7934 19.0757 34.7934C19.0757 34.7934 18.7463 34.5308 18.9088 34.1258C19.0957 33.6629 19.2426 33.1244 19.2426 33.1244C19.2426 33.1244 19.1246 32.9975 19.0022 33.0376C18.8732 33.0799 18.7419 33.2913 18.7419 33.2913C18.7419 33.2913 18.6974 32.8618 18.9065 32.5525C19.1246 32.2298 19.0757 31.7892 19.0757 31.7892C19.0757 31.7892 18.8554 31.8426 18.7419 31.9561C18.6061 32.0918 18.575 32.2899 18.575 32.2899C18.575 32.2899 18.5416 31.4732 18.8887 30.879C19.2915 30.1891 19.2426 29.2857 19.2426 29.2857Z" fill="#F9D05B"/>
<path fill-rule="evenodd" clip-rule="evenodd" d="M21.7773 24.1117C22.5628 24.1117 22.1222 25.467 22.1222 26.0433C22.1222 26.6197 22.3403 27.4497 22.1222 27.4497C21.9041 27.4497 20.9116 26.2748 20.9116 25.6939C20.9116 24.8661 20.9917 24.1117 21.7773 24.1117Z" fill="url(#paint2_linear_9_1025)"/>
<path fill-rule="evenodd" clip-rule="evenodd" d="M27.5878 21.7751C28.4312 21.7751 28.5892 22.7898 28.5892 23.611C28.5892 24.4322 28.9965 25.6138 28.7561 25.6138C28.5158 25.6138 27.6612 25.0708 27.0871 23.7779C26.513 22.4872 26.7444 21.7751 27.5878 21.7751Z" fill="url(#paint3_linear_9_1025)"/>
<path fill-rule="evenodd" clip-rule="evenodd" d="M26.2526 22.2758C26.4707 23.1793 25.6295 23.1615 24.0829 23.9448C22.5363 24.7281 21.8575 25.8653 21.4124 25.1131C20.9674 24.361 21.724 23.4285 22.9146 22.7765C24.1074 22.1245 26.0412 21.4012 26.2526 22.2758Z" fill="url(#paint4_linear_9_1025)"/>
<path fill-rule="evenodd" clip-rule="evenodd" d="M31.7602 30.1202L32.094 31.6223C32.094 31.6223 31.2595 31.7425 31.2595 33.2913C31.2595 34.8402 30.9902 36.4624 30.2581 36.4624C29.5259 36.4624 28.8895 36.4624 28.2552 36.4624C27.621 36.4624 27.3829 35.3475 27.9214 33.4582C28.9273 29.931 30.7588 29.9533 30.7588 29.9533C30.7588 29.9533 30.445 30.3583 30.2892 30.7878C30.1134 31.2729 30.0912 31.7892 30.0912 31.7892C30.0912 31.7892 30.3894 31.3241 30.8278 30.8857C31.2217 30.494 31.7602 30.1202 31.7602 30.1202Z" fill="#AE7429"/>
<path fill-rule="evenodd" clip-rule="evenodd" d="M39.1039 26.4483C39.1039 26.4483 40.6216 26.0255 41.7743 26.1145C42.7801 26.1924 43.4433 26.7821 43.4433 26.7821C43.4433 26.7821 43.0383 26.6575 42.6088 26.6152C42.206 26.5752 41.7743 26.6152 41.7743 26.6152C41.7743 26.6152 42.0658 26.9446 42.3929 27.1271C42.8069 27.3563 43.2764 27.4497 43.2764 27.4497C43.2764 27.4497 42.6956 27.699 42.1148 27.7836C41.5295 27.8681 40.9398 27.7836 40.9398 27.7836L39.1039 26.4483Z" fill="#AE7429"/>
<path fill-rule="evenodd" clip-rule="evenodd" d="M30.5919 23.1103C30.5919 23.1103 29.9577 20.8493 30.425 20.7737C31.393 20.6157 33.4292 25.4469 33.4292 25.4469C33.4292 25.4469 32.3788 22.1846 32.7616 21.942C33.1444 21.6994 33.5961 22.2758 33.5961 22.2758C33.5961 22.2758 32.3499 19.6521 31.7602 19.7723C31.1705 19.8924 32.4278 22.9434 32.4278 22.9434C32.4278 22.9434 30.7655 19.4296 29.9243 19.6054C29.0831 19.7812 30.5919 23.1103 30.5919 23.1103Z" fill="url(#paint5_linear_9_1025)"/>
<path fill-rule="evenodd" clip-rule="evenodd" d="M38.937 27.1159C38.937 27.1159 39.6046 27.9082 39.6046 28.9519C39.6046 29.7708 37.9556 30.9436 37.0076 32.2231C36.1219 33.4181 35.9327 34.4596 35.9327 34.4596C35.9327 34.4596 35.9839 32.0852 37.4215 30.4117C38.621 29.0164 38.937 27.1159 38.937 27.1159Z" fill="#AE7429"/>
<path fill-rule="evenodd" clip-rule="evenodd" d="M21.7461 28.1173C21.7461 28.1173 24.0048 29.4993 24.9172 31.7892C25.8296 34.0791 25.4179 37.0655 25.4179 37.6307C25.4179 38.196 25.6471 38.966 28.5891 38.966C31.531 38.966 32.5947 38.1314 32.5947 38.1314C32.5947 38.1314 31.6578 40.2967 28.4222 39.9674C24.8705 39.6069 25.3133 38.6522 25.251 37.6307C25.2199 37.13 25.2711 34.6732 24.4165 32.4568C23.5331 30.1647 21.7461 28.1173 21.7461 28.1173Z" fill="#7E5421"/>
<path fill-rule="evenodd" clip-rule="evenodd" d="M42.1081 33.9589C42.1081 33.9589 40.439 33.1288 40.439 31.9561C40.439 30.7833 40.9398 30.454 40.9398 30.454C40.9398 30.454 41.1912 31.1594 41.6074 31.6223C42.0302 32.0918 41.9412 32.7906 41.9412 32.7906L41.2736 32.2899C41.2736 32.2899 41.4004 32.8751 41.6074 33.2913C41.8165 33.7097 42.1081 33.9589 42.1081 33.9589Z" fill="#AE7429"/>
<path fill-rule="evenodd" clip-rule="evenodd" d="M40.606 33.792C40.606 33.792 40.3834 34.1592 40.7729 34.6265C40.9264 34.809 41.2691 35.1272 41.4405 35.2941C41.7053 35.5545 41.7743 35.7948 41.7743 35.7948C41.7743 35.7948 42.0524 35.2051 41.4405 34.6265C40.8151 34.0368 40.606 33.792 40.606 33.792Z" fill="#AE7429"/>
<path fill-rule="evenodd" clip-rule="evenodd" d="M19.2426 29.2857C19.2426 29.2857 21.3812 31.4331 22.7475 33.792C24.1183 36.1598 23.9158 39.2997 23.9158 39.2997L22.2446 38.3762C22.2446 38.3762 22.6696 36.8652 21.7884 34.2927C20.9049 31.7224 19.2426 29.2857 19.2426 29.2857Z" fill="#C78F38"/>
<path fill-rule="evenodd" clip-rule="evenodd" d="M20.7447 17.7695C20.7447 17.7695 20.925 17.4223 21.2654 17.0818C21.5926 16.7547 22.0799 16.4342 22.0799 16.4342C22.0799 16.4342 21.4123 16.2028 21.4123 15.9335C21.4123 15.6643 22.5806 14.9321 22.5806 14.9321C22.5806 14.9321 21.6415 14.7652 20.9116 15.2659C20.3197 15.6732 19.9102 16.768 19.9102 16.768C19.9102 16.768 19.859 16.5166 19.8145 16.2896C19.7767 16.1027 19.9102 15.7666 19.9102 15.7666C19.9102 15.7666 19.6298 15.9202 19.3427 16.2473C19.0445 16.5878 18.7419 17.1018 18.7419 17.1018C18.7419 17.1018 19.4073 17.0573 19.5764 17.2687C19.7411 17.4735 19.4095 17.9364 19.4095 17.9364C19.4095 17.9364 19.79 17.7227 20.1461 17.6782C20.4554 17.6404 20.7447 17.7695 20.7447 17.7695Z" fill="#E8C051"/>
<path fill-rule="evenodd" clip-rule="evenodd" d="M25.251 17.2687C25.251 17.2687 23.6599 16.8437 22.8565 17.4379C22.2045 17.9208 22.0198 19.0312 23.4485 17.903C24.125 17.3711 25.251 17.2687 25.251 17.2687Z" fill="#FFF4EA"/>
<path d="M33.269 29.319C33.269 29.319 33.9076 32.5792 33.9076 36.073C33.9076 39.5668 31.8759 40.4191 30.1713 40.4191C28.4667 40.4191 27.4875 40.3434 26.584 39.9028C25.5314 39.3888 25.3645 38.8435 25.3645 38.8435C25.3645 38.8435 25.5359 40.5704 27.2182 40.8241C28.9006 41.0778 31.7357 41.5696 33.2044 39.7159C34.6754 37.8622 34.3127 36.2221 34.3127 34.7734C34.3127 33.3247 33.269 29.319 33.269 29.319Z" fill="#8D5E21"/>
<path fill-rule="evenodd" clip-rule="evenodd" d="M21.4124 15.9335C21.4124 15.6643 22.5807 14.9321 22.5807 14.9321C22.5807 14.9321 21.6416 14.7652 20.9117 15.2659C20.6069 15.4751 20.5779 15.7177 20.7871 15.8668C20.9852 16.0092 21.4124 16.0648 21.4124 15.9335Z" fill="#FFF4EA"/>
<path fill-rule="evenodd" clip-rule="evenodd" d="M39.0328 25.2066L39.6181 24.2052L39.6715 23.4397C39.6715 23.4397 44.0599 22.9701 44.0599 26.188C44.0599 28.5735 42.718 28.5157 42.718 28.5157L43.4991 29.3213C43.4991 29.3213 44.6785 28.8517 44.6785 26.4238C44.6785 22.4605 39.7983 22.93 39.7983 22.93L38.6256 21.7795C38.6256 21.7795 38.8748 21.5815 39.0506 21.5615C39.2264 21.5392 39.6047 21.5659 39.6047 21.5659C39.6047 21.5659 39.0128 21.2833 38.3585 21.1186C37.6887 20.9495 36.9543 20.8983 36.8564 20.7559C36.665 20.4777 37.3259 20.1172 37.3259 20.1172C37.3259 20.1172 36.6272 20.1862 36.0152 19.9948C35.4032 19.8034 35.0027 19.5631 35.0027 19.5631L35.1874 20.3197C35.1874 20.3197 36.0263 20.905 36.8742 21.4546C37.7221 22.0043 38.5365 22.1578 38.9037 22.6741C39.2709 23.1904 39.1819 23.7623 39.1819 23.7623L39.0328 25.2066Z" fill="url(#paint6_linear_9_1025)"/>
<path fill-rule="evenodd" clip-rule="evenodd" d="M31.7114 35.1584C31.8827 35.1584 32.3144 36.0107 32.3144 36.7918C32.3144 37.5729 32.0874 38.0424 31.5044 38.0424C30.9214 38.0424 30.7589 37.3748 31.135 36.5581C31.5111 35.7392 31.54 35.1584 31.7114 35.1584Z" fill="url(#paint7_linear_9_1025)"/>
<path fill-rule="evenodd" clip-rule="evenodd" d="M26.0143 36.0864C25.8852 36.1086 25.6672 36.8096 25.7673 37.4015C25.8674 37.9935 26.1011 38.3206 26.5417 38.245C26.9823 38.1693 27.0202 37.6419 26.6307 37.0722C26.2413 36.5025 26.1434 36.0641 26.0143 36.0864Z" fill="url(#paint8_linear_9_1025)"/>
<path fill-rule="evenodd" clip-rule="evenodd" d="M31.0438 37.5573C30.9859 37.3258 30.8212 37.15 30.6899 37.1278C30.4852 37.0922 30.2827 37.3303 30.2026 37.426C30.1225 37.5217 30.0245 37.5261 29.9289 37.5261C29.8332 37.5261 29.7597 37.4883 29.6796 37.426C29.5995 37.3637 29.5127 37.2813 29.4037 37.2813C29.2946 37.2813 29.2078 37.357 29.1277 37.426C29.0476 37.495 28.9697 37.5261 28.8763 37.5261C28.7828 37.5261 28.7205 37.5061 28.6292 37.426C28.538 37.3459 28.4334 37.2702 28.3132 37.2836C28.2176 37.2947 28.1463 37.3681 28.0796 37.426C28.0128 37.4838 27.9105 37.5528 27.8036 37.5528C27.6968 37.5528 27.6723 37.5261 27.5299 37.426C27.3875 37.3258 27.2673 37.2569 27.1294 37.308C26.9335 37.3793 26.7755 37.7019 26.9068 38.0357C27.0203 38.3228 27.9728 38.2538 29.1789 38.2538C30.385 38.2538 30.8123 38.1025 30.8123 38.1025C30.9636 38.1047 31.0927 37.7531 31.0438 37.5573Z" fill="url(#paint9_linear_9_1025)"/>
<path fill-rule="evenodd" clip-rule="evenodd" d="M40.9399 30.454C40.9399 30.454 41.1913 31.1594 41.6075 31.6223C42.0303 32.0918 41.9413 32.7906 41.9413 32.7906L41.2737 32.2899C41.2737 32.2899 41.0912 32.2743 40.8175 31.5488C40.5438 30.8234 40.9399 30.454 40.9399 30.454Z" fill="#7B551F"/>
<path d="M30 0C13.4322 0 0 13.4322 0 30C0 46.5678 13.4322 60 30 60C46.5678 60 60 46.5678 60 30C60 13.4322 46.57 0 30 0ZM30 52.7632C17.429 52.7632 7.23908 42.5733 7.23908 30.0022C7.23908 17.4312 17.429 7.2413 30 7.2413C42.571 7.2413 52.7609 17.4312 52.7609 30.0022C52.7631 42.571 42.571 52.7632 30 52.7632Z" fill="#412D16"/>
<path d="M30 59.7241C13.6102 59.7241 0.278145 46.3897 0.278145 30.0022C0.278145 13.6147 13.6125 0.27817 30 0.27817C46.3875 0.27817 59.7218 13.6125 59.7218 30C59.7218 46.3875 46.3897 59.7241 30 59.7241ZM30 6.96091C17.2954 6.96091 6.96088 17.2955 6.96088 30C6.96088 42.7045 17.2954 53.0391 30 53.0391C42.7045 53.0391 53.0391 42.7045 53.0391 30C53.0391 17.2955 42.7045 6.96091 30 6.96091Z" fill="url(#paint10_linear_9_1025)"/>
<path d="M30 0.333803C46.3853 0.333803 59.6662 13.6169 59.6662 30C59.6662 46.3831 46.3831 59.6662 30 59.6662C13.617 59.6662 0.333825 46.3853 0.333825 30C0.333825 13.6147 13.617 0.333803 30 0.333803ZM30 53.097C42.7558 53.097 53.0947 42.7557 53.0947 30.0022C53.0947 17.2465 42.7535 6.9075 30 6.9075C17.2443 6.9075 6.9053 17.2487 6.9053 30.0022C6.9053 42.7557 17.2443 53.097 30 53.097ZM30 0.222535C22.0466 0.222535 14.5694 3.32023 8.94372 8.9437C3.32025 14.5694 0.222557 22.0466 0.222557 30C0.222557 37.9534 3.32025 45.4328 8.94372 51.0563C14.5672 56.6798 22.0466 59.7775 30 59.7775C37.9534 59.7775 45.4329 56.6798 51.0563 51.0563C56.6798 45.4328 59.7775 37.9534 59.7775 30C59.7775 22.0466 56.6798 14.5672 51.0563 8.9437C45.4329 3.32023 37.9557 0.222535 30 0.222535ZM30 52.9857C17.3266 52.9857 7.01656 42.6756 7.01656 30.0022C7.01656 17.3288 17.3266 7.01654 30 7.01654C42.6734 7.01654 52.9857 17.3266 52.9857 30C52.9857 42.6734 42.6734 52.9857 30 52.9857Z" fill="#BA8F1C"/>
<path fill-rule="evenodd" clip-rule="evenodd" d="M34.6243 3.9411C34.5597 4.54195 34.3595 4.98925 34.0257 5.27854C33.6919 5.56784 33.2468 5.68356 32.6905 5.62347C32.1341 5.56339 31.7247 5.3542 31.4621 4.99815C31.1995 4.64209 31.1016 4.16364 31.1661 3.55834C31.2306 2.95305 31.4309 2.50798 31.7647 2.22313C32.0985 1.93606 32.5436 1.82479 33.1021 1.88488C33.6607 1.94496 34.0702 2.15415 34.3305 2.50575C34.5931 2.85958 34.691 3.33803 34.6243 3.9411ZM31.9739 3.65181C31.9294 4.05682 31.9739 4.3706 32.1052 4.59313C32.2365 4.81567 32.4568 4.94251 32.7617 4.97589C33.3759 5.04265 33.7275 4.6688 33.8165 3.85209C33.9055 3.03316 33.6451 2.59031 33.0332 2.52578C32.7261 2.4924 32.4835 2.57029 32.3055 2.75944C32.1297 2.9486 32.0184 3.24679 31.9739 3.65181ZM26.7288 5.63905L26.5685 4.24598L26.978 4.20147L28.0039 5.4944L28.8584 5.39648C28.6648 5.17617 28.2487 4.69105 27.61 3.93665C27.8147 3.81871 27.9661 3.66961 28.064 3.48936C28.1619 3.3091 28.1997 3.11327 28.1752 2.89964C28.133 2.53468 27.9839 2.27654 27.7257 2.12299C27.4676 1.96944 27.0937 1.92271 26.5997 1.97834L25.5426 2.09851L25.9588 5.72806L26.7288 5.63905ZM26.7443 3.59172L26.4951 3.62065L26.3816 2.63927L26.6153 2.61257C26.8645 2.58364 27.0514 2.59921 27.1783 2.6593C27.3051 2.71938 27.3786 2.8351 27.3986 3.00645C27.4186 3.18003 27.3763 3.31578 27.2695 3.40924C27.1627 3.50271 26.9869 3.56502 26.7443 3.59172ZM23.0302 3.7831C23.1504 4.15696 23.1259 4.48187 22.9545 4.75558C22.7832 5.0293 22.4827 5.23403 22.051 5.37423L21.735 5.4766L22.1311 6.71389L21.3946 6.94978L20.2774 3.47155L21.3879 3.1155C21.8107 2.97975 22.1601 2.96862 22.4382 3.07989C22.7164 3.18671 22.9145 3.4226 23.0302 3.7831ZM21.5414 4.86908L21.784 4.79119C22.011 4.71775 22.1667 4.61984 22.2491 4.49299C22.3337 4.36837 22.347 4.21927 22.2936 4.04792C22.238 3.87434 22.1489 3.76308 22.0288 3.70967C21.9086 3.65848 21.7462 3.66293 21.5459 3.72747L21.2098 3.83429L21.5414 4.86908ZM12.2996 8.99488L14.7408 10.7351L15.3016 10.3034L14.3091 7.45939L14.3269 7.44604C14.5894 7.82212 14.7541 8.05356 14.8164 8.14035C14.8724 8.2183 14.9248 8.28728 14.9703 8.34727L14.9704 8.34732L14.9856 8.36733L16.0382 9.74038L16.6123 9.29976L14.3892 6.40012L13.5524 7.04102L14.5249 9.81604L14.5138 9.82494L12.1282 8.13367L11.2915 8.77457L13.5146 11.6742L14.0643 11.2536L13.0295 9.90505C12.9115 9.7515 12.6623 9.45108 12.2818 9.00824L12.2996 8.99488ZM9.0038 11.0756L10.8397 12.5644C11.0489 12.7335 11.1958 12.9293 11.2781 13.1518C11.3604 13.3744 11.3716 13.608 11.3115 13.8528C11.2514 14.0976 11.1246 14.3424 10.9287 14.585C10.6328 14.9499 10.3101 15.1569 9.95847 15.2081C9.60687 15.2593 9.27084 15.1524 8.94594 14.8876L7.1167 13.4055L7.60405 12.8047L9.34205 14.2133C9.56013 14.3914 9.75597 14.4759 9.92954 14.4715C10.1031 14.467 10.2722 14.3624 10.4369 14.1599C10.5971 13.9641 10.6595 13.7794 10.6305 13.6058C10.5994 13.4345 10.4748 13.2587 10.2544 13.0806L8.5209 11.6764L9.0038 11.0756ZM7.90001 19.236L6.65159 18.5973L6.84297 18.2279L8.48751 18.0899L8.87917 17.3244C8.58987 17.3622 7.95342 17.4401 6.97204 17.5558C6.98539 17.3199 6.94534 17.113 6.84965 16.9305C6.75396 16.7502 6.61153 16.61 6.42015 16.5121C6.0908 16.3452 5.7926 16.3274 5.52333 16.4565C5.25407 16.5856 5.00705 16.8704 4.78007 17.3133L4.29494 18.2613L7.54841 19.9258L7.90001 19.236ZM6.20429 18.0877L6.0908 18.3102L5.21179 17.8607L5.3186 17.6515C5.4321 17.429 5.54781 17.2821 5.66798 17.2087C5.78815 17.1352 5.92612 17.1397 6.07967 17.2176C6.23545 17.2977 6.32224 17.4089 6.34227 17.5491C6.36229 17.6893 6.31556 17.8696 6.20429 18.0877ZM3.12662 21.2165L5.40983 21.8285C5.6702 21.8975 5.88383 22.0177 6.04851 22.1868C6.21319 22.3559 6.31778 22.5651 6.36451 22.8143C6.41124 23.0636 6.39122 23.3373 6.3111 23.6377C6.18871 24.0917 5.9773 24.4121 5.6791 24.6013C5.37868 24.7905 5.02707 24.8305 4.62428 24.7215L2.34997 24.1117L2.55025 23.3662L4.71107 23.947C4.98257 24.0205 5.1962 24.0183 5.3542 23.9426C5.50997 23.8669 5.62347 23.7023 5.69023 23.4508C5.75476 23.206 5.73919 23.0124 5.64127 22.8677C5.54336 22.7231 5.35643 22.6141 5.08271 22.5406L2.92634 21.962L3.12662 21.2165ZM5.50775 27.8058L4.62651 28.0261L4.55975 29.3569L5.41428 29.6662L5.372 30.5007L1.77361 29.0275L1.82256 28.0817L5.55226 26.9735L5.50775 27.8058ZM3.96558 28.1797C3.16668 28.3844 2.71493 28.5001 2.61034 28.5246C2.50575 28.5513 2.42341 28.5691 2.36332 28.578C2.57251 28.6448 3.09324 28.8272 3.91885 29.1299L3.96558 28.1797ZM39.1551 6.64936C39.5824 6.45798 39.8939 6.07744 40.0897 5.50775C40.2722 4.97367 40.2589 4.50412 40.0519 4.0991C39.8405 3.69409 39.4555 3.39589 38.8903 3.20229L37.8043 2.83065L36.6182 6.28663L37.5974 6.62265C38.2071 6.83184 38.7278 6.84074 39.1551 6.64936ZM38.7212 3.81426C39.3754 4.03902 39.5757 4.52192 39.322 5.26519C39.0616 6.02403 38.5787 6.28218 37.8733 6.03739L37.5595 5.93057L38.3317 3.68074L38.7212 3.81426ZM45.7355 6.51584L44.5226 8.54536C44.3847 8.7768 44.2111 8.94815 44.0041 9.06165C43.7972 9.17514 43.5657 9.21965 43.3143 9.19517C43.0628 9.17069 42.8024 9.07945 42.5354 8.91922C42.1326 8.67888 41.8811 8.38736 41.781 8.04911C41.6809 7.70863 41.7387 7.35925 41.9524 7.00097L43.1585 4.98034L43.8217 5.37646L42.6756 7.29694C42.531 7.5395 42.4731 7.74424 42.5042 7.91559C42.5332 8.08694 42.6622 8.23826 42.887 8.37401C43.1051 8.50308 43.2965 8.54091 43.4611 8.48528C43.628 8.42964 43.7816 8.28055 43.9285 8.03798L45.0723 6.12195L45.7355 6.51584ZM48.2635 9.70032C48.5305 9.64691 48.7708 9.71812 48.9845 9.91618C49.0824 10.0052 49.167 10.1142 49.2359 10.2433C49.3049 10.3724 49.3695 10.5081 49.4251 10.6483L50.0348 10.3546C49.888 9.98516 49.6832 9.68029 49.4229 9.43995C49.167 9.20629 48.891 9.05497 48.5973 8.99266C48.3035 8.93035 48.0098 8.95705 47.7138 9.07277C47.4201 9.18849 47.1441 9.38654 46.886 9.66694C46.4765 10.112 46.2673 10.5482 46.2562 10.9754C46.2451 11.4027 46.4342 11.7966 46.8259 12.1571C47.0974 12.4086 47.3867 12.5888 47.6915 12.7001L48.1322 12.2216C47.7761 12.0681 47.5046 11.9056 47.3155 11.7321C46.8637 11.3182 46.9149 10.8108 47.4668 10.2122C47.7316 9.92285 47.9964 9.75373 48.2635 9.70032ZM50.2173 16.0226L49.7656 15.3928L52.2113 13.6414L51.6327 12.8358L52.1579 12.4598L53.7646 14.7029L53.2394 15.079L52.6608 14.2734L50.2173 16.0226ZM55.0886 17.0462L51.8196 18.6796L52.1668 19.3717L55.4358 17.7383L55.0886 17.0462ZM55.8431 24.2875C55.2622 24.4566 54.7749 24.4433 54.3788 24.2452C53.9827 24.0472 53.7067 23.68 53.5509 23.1437C53.3952 22.6074 53.4308 22.149 53.6578 21.7684C53.887 21.3901 54.292 21.1164 54.875 20.945C55.4581 20.7759 55.9476 20.7893 56.3393 20.9895C56.731 21.1898 57.0047 21.557 57.1627 22.0978C57.3185 22.6363 57.2829 23.0947 57.0559 23.4708C56.8311 23.8447 56.4261 24.1184 55.8431 24.2875ZM55.0998 21.7261C54.7081 21.8396 54.4344 21.9999 54.2786 22.2068C54.1229 22.4138 54.0895 22.6652 54.174 22.9612C54.3476 23.5554 54.8283 23.7379 55.6161 23.5086C56.4061 23.2794 56.7154 22.8677 56.544 22.278C56.4573 21.9821 56.2948 21.7884 56.05 21.695C55.8097 21.6015 55.4915 21.6126 55.0998 21.7261ZM54.5723 29.2723L54.6257 30.2559L58.2709 30.0534L58.2331 29.3569L56.5062 29.4503C56.3103 29.4615 55.9743 29.4926 55.5025 29.5438V29.526L58.1485 27.7925L58.0951 26.8177L54.4477 27.018L54.4855 27.7101L56.2035 27.6167C56.4127 27.6055 56.7599 27.5699 57.245 27.5121V27.5343L54.5723 29.2723Z" fill="url(#paint11_linear_9_1025)"/>
<defs>
<linearGradient id="paint0_linear_9_1025" x1="31.791" y1="51.6764" x2="31.791" y2="17.8546" gradientUnits="userSpaceOnUse">
<stop stop-color="#C38F30"/>
<stop offset="0.0321" stop-color="#C69534"/>
<stop offset="0.2328" stop-color="#DBB34C"/>
<stop offset="0.4256" stop-color="#EACA60"/>
<stop offset="0.6055" stop-color="#F4D96C"/>
<stop offset="0.7594" stop-color="#F7DD70"/>
<stop offset="0.8146" stop-color="#F1D466"/>
<stop offset="0.8992" stop-color="#ECCB5D"/>
<stop offset="1" stop-color="#EBC85A"/>
</linearGradient>
<linearGradient id="paint1_linear_9_1025" x1="16.0518" y1="33.4105" x2="41.9324" y2="33.4105" gradientUnits="userSpaceOnUse">
<stop stop-color="#432F17"/>
<stop offset="1" stop-color="#AB7129"/>
</linearGradient>
<linearGradient id="paint2_linear_9_1025" x1="20.9121" y1="25.7812" x2="22.2454" y2="25.7812" gradientUnits="userSpaceOnUse">
<stop stop-color="#FFED77"/>
<stop offset="0.3915" stop-color="#F5DA65"/>
<stop offset="1" stop-color="#E2B745"/>
</linearGradient>
<linearGradient id="paint3_linear_9_1025" x1="26.7709" y1="23.695" x2="28.8327" y2="23.695" gradientUnits="userSpaceOnUse">
<stop stop-color="#FFED77"/>
<stop offset="0.3915" stop-color="#F5DA65"/>
<stop offset="1" stop-color="#E2B745"/>
</linearGradient>
<linearGradient id="paint4_linear_9_1025" x1="21.2842" y1="23.6161" x2="26.2871" y2="23.6161" gradientUnits="userSpaceOnUse">
<stop stop-color="#FFED77"/>
<stop offset="0.3915" stop-color="#F5DA65"/>
<stop offset="1" stop-color="#E2B745"/>
</linearGradient>
<linearGradient id="paint5_linear_9_1025" x1="31.6332" y1="24.7393" x2="31.6332" y2="20.8126" gradientUnits="userSpaceOnUse">
<stop stop-color="#AD7429"/>
<stop offset="1" stop-color="#815621"/>
</linearGradient>
<linearGradient id="paint6_linear_9_1025" x1="35.0066" y1="24.4404" x2="44.6798" y2="24.4404" gradientUnits="userSpaceOnUse">
<stop stop-color="#472D16"/>
<stop offset="0.5437" stop-color="#784F23"/>
<stop offset="1" stop-color="#A76D27"/>
</linearGradient>
<linearGradient id="paint7_linear_9_1025" x1="31.3964" y1="36.5994" x2="32.0391" y2="36.5994" gradientUnits="userSpaceOnUse">
<stop stop-color="#FFED77"/>
<stop offset="0.3915" stop-color="#F5DA65"/>
<stop offset="1" stop-color="#E2B745"/>
</linearGradient>
<linearGradient id="paint8_linear_9_1025" x1="26.037" y1="37.1607" x2="26.4998" y2="37.1593" gradientUnits="userSpaceOnUse">
<stop stop-color="#FFED77"/>
<stop offset="0.3915" stop-color="#F5DA65"/>
<stop offset="1" stop-color="#E2B745"/>
</linearGradient>
<linearGradient id="paint9_linear_9_1025" x1="27.2676" y1="37.6422" x2="30.6943" y2="37.73" gradientUnits="userSpaceOnUse">
<stop stop-color="#FFED77"/>
<stop offset="0.3915" stop-color="#F5DA65"/>
<stop offset="1" stop-color="#E2B745"/>
</linearGradient>
<linearGradient id="paint10_linear_9_1025" x1="30.0005" y1="58.8611" x2="30.0005" y2="1.09821" gradientUnits="userSpaceOnUse">
<stop stop-color="#BE8A30"/>
<stop offset="0.1135" stop-color="#845C28"/>
<stop offset="0.151" stop-color="#714E24"/>
<stop offset="0.3828" stop-color="#EAB23B"/>
<stop offset="0.4006" stop-color="#F5BC3C"/>
<stop offset="0.8514" stop-color="#FBD865"/>
<stop offset="1" stop-color="#AB7129"/>
</linearGradient>
<linearGradient id="paint11_linear_9_1025" x1="30.0423" y1="30.4873" x2="30.0423" y2="3.1155" gradientUnits="userSpaceOnUse">
<stop stop-color="#AD7429"/>
<stop offset="1" stop-color="#815621"/>
</linearGradient>
</defs>
</svg>
