<svg width="32" height="32" viewBox="0 0 32 32" fill="none" xmlns="http://www.w3.org/2000/svg">
<rect x="0.5" y="0.5" width="31" height="31" rx="15.5" fill="url(#paint0_linear_17_3)"/>
<g filter="url(#filter0_d_17_3)">
<path fill-rule="evenodd" clip-rule="evenodd" d="M15.75 8.5C19.4809 8.5 22.5 11.5191 22.5 15.25C22.5 18.9809 19.4809 22 15.75 22C14.1715 22 12.7204 21.4596 11.5715 20.5535L8.625 23.5L7.5 22.375L10.4465 19.4285C9.54038 18.2796 8.99996 16.8285 8.99996 15.25C8.99996 11.5191 12.0313 8.5 15.75 8.5ZM15.7499 10C18.6549 10 20.9999 12.345 20.9999 15.25C20.9999 18.155 18.6549 20.5 15.7499 20.5C12.8449 20.5 10.4999 18.155 10.4999 15.25C10.4999 12.345 12.8565 10 15.7499 10Z" fill="white"/>
</g>
<rect x="0.5" y="0.5" width="31" height="31" rx="15.5" stroke="#845C28"/>
<defs>
<filter id="filter0_d_17_3" x="7.5" y="8.5" width="15" height="16" filterUnits="userSpaceOnUse" color-interpolation-filters="sRGB">
<feFlood flood-opacity="0" result="BackgroundImageFix"/>
<feColorMatrix in="SourceAlpha" type="matrix" values="0 0 0 0 0 0 0 0 0 0 0 0 0 0 0 0 0 0 127 0" result="hardAlpha"/>
<feOffset dy="1"/>
<feComposite in2="hardAlpha" operator="out"/>
<feColorMatrix type="matrix" values="0 0 0 0 0 0 0 0 0 0 0 0 0 0 0 0 0 0 0.25 0"/>
<feBlend mode="normal" in2="BackgroundImageFix" result="effect1_dropShadow_17_3"/>
<feBlend mode="normal" in="SourceGraphic" in2="effect1_dropShadow_17_3" result="shape"/>
</filter>
<linearGradient id="paint0_linear_17_3" x1="16.0003" y1="30.5645" x2="16.0003" y2="1.41384" gradientUnits="userSpaceOnUse">
<stop stop-color="#845C28"/>
<stop offset="0.515625" stop-color="#F5BC3C"/>
<stop offset="1" stop-color="#FBD865"/>
</linearGradient>
</defs>
</svg>
