<svg width="143" height="61" viewBox="0 0 143 61" fill="none" xmlns="http://www.w3.org/2000/svg">
<path fill-rule="evenodd" clip-rule="evenodd" d="M118.135 9.64593L115.308 6.81841L118.644 3.48193L124.865 9.64593L118.644 15.8665L115.308 12.4734L118.135 9.64593ZM57.796 9.75902H65.8262L72.2164 35.3198C72.2164 35.3198 72.895 38.2604 73.1777 39.7308C73.4605 38.2604 74.1391 35.2633 74.1391 35.2633L80.6989 9.75902H88.5594L95.2324 35.2633C95.2324 35.2633 95.911 38.2604 96.1938 39.7308C96.4765 38.2604 97.1551 35.3198 97.1551 35.3198L103.545 9.75902H111.632L100.492 50.1926H92.2918L84.714 20.8429L77.1363 50.1926H68.9365L57.796 9.75902ZM123.564 21.5781H116.269V50.2491H123.564V21.5781ZM150.652 33.6798V50.1926L157.947 50.2491V30.7392C157.947 24.8014 153.988 20.7864 147.881 20.7864C143.696 20.7864 140.303 22.9353 138.154 26.2152V21.5781H130.859V50.2491H138.154V35.6591C138.154 30.8523 141.038 27.5724 144.827 27.5724C148.842 27.5724 150.652 29.9475 150.652 33.6798ZM164.45 9.75902H171.745V30.2303L180.454 21.5781H189.445L178.984 31.8137L190.859 50.2491H182.49L173.951 36.8467L171.745 38.9956V50.2491H164.45V9.75902Z" fill="black"/>
<path d="M16.288 0.201904L0.0579834 16.4884L13.7997 30.2302L0.0579834 43.9719L16.288 60.2019L46.2597 30.2302L16.288 0.201904Z" fill="#FF4F12"/>
</svg>
