<svg width="201" height="95" viewBox="0 0 201 95" fill="none" xmlns="http://www.w3.org/2000/svg">
<g clip-path="url(#clip0_64_1809)">
<path d="M100.208 94.4039H29.409C27.635 94.4039 26.9221 93.6772 26.9221 91.8825C26.9221 64.9876 26.9175 38.0955 26.9083 11.2061C26.9083 9.98895 27.367 9.24013 28.4709 8.73032C34.525 5.94228 40.5672 3.12983 46.5973 0.292969C47.494 -0.128415 48.2856 -0.0703886 49.1698 0.304022C63.1736 6.23379 77.1866 12.1525 91.2088 18.0602C93.983 19.2304 96.7573 20.3992 99.5218 21.5901C99.7357 21.6918 99.9696 21.7446 100.206 21.7446C100.443 21.7446 100.677 21.6918 100.891 21.5901C117.697 14.4823 134.506 7.37959 151.319 0.281916C151.722 0.0932505 152.164 -0.000601968 152.609 0.00753981C153.055 0.0156816 153.492 0.125602 153.889 0.32889C159.923 3.1593 165.967 5.97083 172.021 8.76348C173.061 9.24427 173.528 9.97928 173.528 11.1412C173.513 38.1033 173.51 65.065 173.517 92.0262C173.517 93.6095 172.725 94.4053 171.152 94.4053L100.208 94.4039ZM45.7463 65.2814H49.9629C49.9629 67.7213 49.956 70.1612 49.9629 72.6039C49.9629 73.6801 49.8579 73.5489 50.93 73.5489H149.53C149.622 73.5419 149.714 73.5419 149.806 73.5489C150.306 73.6262 150.497 73.4535 150.473 72.9161C150.428 71.9973 150.45 71.0744 150.464 70.1529C150.49 68.4522 150.388 66.7501 150.519 65.0507C151.867 65.468 153.279 65.6429 154.689 65.5674C154.689 68.4688 154.682 71.3701 154.666 74.2714C154.664 74.4072 154.693 74.5418 154.752 74.6642C154.81 74.7866 154.897 74.8934 155.005 74.976C159.072 78.5682 163.137 82.1681 167.199 85.7759C167.877 86.3769 168.564 86.9696 169.293 87.6065V14.0342C169.155 14.0812 169.067 14.1019 168.987 14.1365C164.379 16.0946 159.768 18.0505 155.156 20.0041C154.767 20.1685 154.664 20.3923 154.665 20.7874C154.676 29.7217 154.681 38.656 154.679 47.5902C153.269 47.4915 151.854 47.6502 150.501 48.0586C150.487 47.7615 150.461 47.4631 150.461 47.1647C150.461 39.087 150.461 31.0084 150.461 22.9289V22.0474C150.176 22.1552 149.962 22.227 149.755 22.3141C145.357 24.1848 140.96 26.0568 136.565 27.9302C124.812 32.9325 113.06 37.9366 101.308 42.9426C100.964 43.1003 100.59 43.1819 100.211 43.1819C99.8326 43.1819 99.4584 43.1003 99.1142 42.9426C90.8947 39.4352 82.6729 35.9352 74.4488 32.4425L50.731 22.3417C49.9656 22.0157 49.9587 22.0212 49.9587 22.8018C49.9587 31.1567 49.9587 39.5112 49.9587 47.8652H45.7407C45.7407 38.8894 45.7449 29.9133 45.7532 20.9366C45.7532 20.384 45.586 20.1436 45.0803 19.9322C41.5186 18.4443 37.9735 16.919 34.4214 15.4061C33.3299 14.9419 32.2357 14.4833 31.1305 14.0149V87.5595C31.2686 87.4642 31.3487 87.4214 31.4068 87.3661C36.071 83.2297 40.7362 79.095 45.4023 74.9622C45.6786 74.7177 45.7394 74.458 45.738 74.1195C45.7421 71.1725 45.7463 68.227 45.7463 65.2814ZM34.5416 90.2094H165.792C165.732 90.1117 165.664 90.0192 165.588 89.9331C161.129 85.9799 156.671 82.0258 152.214 78.0708C151.851 77.7475 151.481 77.677 151.027 77.6784C117.141 77.684 83.255 77.684 49.3702 77.6784C49.1332 77.6732 48.8975 77.7153 48.6769 77.8021C48.4563 77.8889 48.2552 78.0188 48.0853 78.1841C44.9279 81.0044 41.7622 83.8136 38.5883 86.6118C37.2647 87.7834 35.9481 88.9577 34.5416 90.2094ZM98.1029 37.955V37.2242C98.1029 33.5644 98.0891 29.9018 98.1181 26.2461C98.1181 25.6935 97.9523 25.4461 97.455 25.2361C81.8476 18.6653 66.2481 12.0844 50.6564 5.49326C49.9656 5.20313 49.9656 5.20727 49.9574 5.98235C49.9574 9.57447 49.9726 13.1666 49.9422 16.7587C49.9422 17.321 50.1342 17.5504 50.6247 17.759C63.9257 23.4051 77.2221 29.0622 90.5139 34.7304C93.0049 35.7915 95.4959 36.847 98.1029 37.955ZM102.314 31.6757C102.314 33.516 102.332 35.3577 102.304 37.2021C102.295 37.7892 102.351 37.9592 102.995 37.6842C118.629 31.0093 134.27 24.351 149.918 17.7093C150.352 17.5255 150.471 17.2948 150.471 16.8389C150.451 13.2467 150.46 9.6546 150.46 6.06248C150.46 5.20728 150.46 5.20589 149.665 5.54024L128.903 14.3106C120.226 17.9736 111.549 21.6339 102.869 25.2914C102.437 25.4724 102.296 25.6976 102.303 26.159C102.331 27.9883 102.314 29.8341 102.314 31.6757ZM34.2694 10.6756C34.3443 10.7493 34.4262 10.8154 34.514 10.8732C38.1061 12.4067 41.6982 13.9407 45.2903 15.4752C45.8015 15.6949 45.7518 15.3716 45.7518 15.0608C45.7518 12.0213 45.7394 8.98177 45.7601 5.94919C45.7601 5.38135 45.5791 5.39655 45.1646 5.60103C44.0897 6.1205 43.0011 6.61373 41.9179 7.12077L34.2694 10.6756ZM166.182 10.7613C166.067 10.676 165.946 10.5976 165.821 10.5264C162.283 8.87815 158.741 7.23821 155.208 5.57616C154.617 5.29984 154.671 5.648 154.671 6.01965C154.671 8.96703 154.671 11.9117 154.671 14.8535C154.671 15.6687 154.671 15.6714 155.404 15.3619C157.728 14.3727 160.051 13.3821 162.373 12.3901C163.612 11.8582 164.847 11.3277 166.182 10.7571V10.7613Z" fill="#2EBDAF"/>
<path fill-rule="evenodd" clip-rule="evenodd" d="M78.3966 65.2446C78.759 65.3414 79.1215 65.4382 79.4778 65.5481L81.8376 65.5537C81.8714 65.5438 81.9052 65.5337 81.9389 65.5235L81.9396 65.5233L81.9402 65.5232L81.9408 65.523C82.076 65.4824 82.2111 65.442 82.3487 65.4155C85.3164 64.8422 87.4744 63.2671 88.5894 60.4114C89.124 59.0409 89.1489 57.6054 89.1489 56.1589C89.1475 55.6946 89.0232 55.5565 88.5479 55.5565C86.8896 55.5748 85.2305 55.5721 83.5718 55.5695H83.5717H83.5716H83.5714H83.5713H83.5712C82.979 55.5685 82.3868 55.5675 81.7947 55.5675C81.1313 55.5675 80.7987 55.5675 80.6319 55.7338C80.4643 55.9011 80.4643 56.2365 80.4643 56.9091V59.0768H84.9862C84.4626 60.754 82.7812 61.6894 80.4118 61.67C78.0161 61.6507 76.0791 60.2815 75.4532 58.1649C74.7873 55.9143 75.6259 53.4827 77.4856 52.2835C78.4569 51.6613 79.6089 51.3831 80.7572 51.4932C82.3059 51.6107 83.6074 52.2213 84.562 53.4896L87.9013 51.5775C87.8529 51.4674 87.7961 51.3612 87.7314 51.2597C87.5141 50.9559 87.2783 50.6657 87.0254 50.3907C84.4391 47.8058 81.3236 47.0735 77.8254 47.9439C74.2181 48.8406 71.6387 51.9284 71.2781 55.8425C70.9451 59.454 72.7287 62.8513 76.0819 64.4705C76.8086 64.8206 77.6024 65.0325 78.3966 65.2446ZM152.017 65.384L152.018 65.3841C152.221 65.4352 152.424 65.4862 152.626 65.5398L155.198 65.5343C155.248 65.5198 155.297 65.5039 155.345 65.488C155.446 65.4553 155.546 65.4226 155.649 65.403C158.151 64.9374 160.139 63.723 161.407 61.4752C162.388 59.7358 162.524 57.8292 162.475 55.8949C162.466 55.5571 162.262 55.5581 162.039 55.5591L162.001 55.5592C161.138 55.5592 160.275 55.5601 159.412 55.5611L159.411 55.5611C157.684 55.5629 155.957 55.5647 154.23 55.5592C153.896 55.5578 153.751 55.6587 153.757 56.0138C153.777 56.8676 153.78 57.72 153.757 58.5725C153.748 58.9524 153.889 59.0532 154.256 59.0532C155.03 59.044 155.804 59.0471 156.578 59.0502H156.579H156.579H156.579H156.579C156.966 59.0517 157.353 59.0532 157.739 59.0532C157.867 59.0532 157.995 59.0627 158.129 59.0726C158.187 59.0769 158.247 59.0813 158.308 59.085C157.703 60.8231 155.987 61.7487 153.593 61.6672C151.199 61.5857 149.265 60.1406 148.73 58.0364C148.14 55.7126 149.021 53.3666 150.918 52.2103C153.092 50.8867 155.497 51.3108 157.917 53.4675L161.242 51.5623C161.194 51.4913 161.152 51.4264 161.113 51.3663L161.112 51.3652L161.112 51.3647L161.112 51.3645C161.022 51.2263 160.948 51.1133 160.863 51.0097C158.499 48.1387 155.432 47.1716 151.827 47.7892C147.906 48.4592 144.867 51.8814 144.591 55.8369C144.299 60.0494 146.715 63.7285 150.627 65.001C151.083 65.1492 151.55 65.2666 152.017 65.384L152.017 65.384ZM189.533 65.3758L189.533 65.3756C189.156 65.2859 188.781 65.1967 188.413 65.0881C184.619 63.9428 182.11 60.3907 182.196 56.2929C182.244 54.3915 182.904 52.5562 184.077 51.0588C185.249 49.5613 186.873 48.4813 188.707 47.9785C193.66 46.6508 198.544 49.396 199.855 54.2537C199.951 54.617 200.026 54.9869 200.1 55.3566C200.133 55.5197 200.166 55.6828 200.201 55.8453V57.3319C200.153 57.4598 200.114 57.5909 200.085 57.7243C199.565 61.1257 197.746 63.5394 194.541 64.8615C194.056 65.0605 193.542 65.1893 193.028 65.3182C192.785 65.379 192.542 65.4399 192.302 65.5081L190.057 65.5026C189.883 65.4589 189.708 65.4173 189.534 65.3758L189.533 65.3758L189.533 65.3758ZM186.158 56.5872C186.18 59.5576 188.315 61.6618 191.291 61.648C194.101 61.6342 196.196 59.4374 196.176 56.5126C196.157 53.5878 194.014 51.4878 191.109 51.5085C188.263 51.5223 186.136 53.7052 186.158 56.5872ZM114.882 65.2832L114.882 65.2832L114.882 65.2832C115.17 65.3658 115.457 65.4484 115.742 65.5399L118.1 65.544C118.25 65.4942 118.403 65.4523 118.557 65.4183C123.117 64.6335 126.663 60.5054 125.88 55.2387C125.105 50.0205 120.326 46.7821 115.126 47.8017C111.33 48.5463 108.505 51.6093 108.027 55.4985C107.549 59.3877 109.628 63.1511 113.171 64.7109C113.72 64.9494 114.3 65.1162 114.882 65.2832ZM111.969 56.5734C111.966 53.6227 114.076 51.487 116.984 51.4864C119.885 51.4905 122.017 53.6527 122.007 56.5789C121.996 59.5465 119.874 61.6659 116.923 61.6659C114.067 61.6617 111.971 59.5244 111.969 56.5734ZM8.85795 55.58C9.1116 55.1672 9.35955 54.7643 9.60398 54.3672C9.94934 53.8061 10.2876 53.2564 10.625 52.7063C10.8633 52.3186 11.1011 51.9308 11.339 51.5429L11.3394 51.5423L11.3396 51.5419C12.0078 50.4525 12.6759 49.3631 13.3523 48.2783C13.4434 48.1305 13.6286 47.9357 13.7667 47.9329C14.7259 47.9114 15.685 47.9133 16.6629 47.9152C16.9443 47.9158 17.2273 47.9163 17.5122 47.9163C17.5168 47.9872 17.5222 48.0537 17.5273 48.117L17.5273 48.1171C17.5376 48.2437 17.5468 48.3575 17.5468 48.469V48.4714C17.5468 53.8588 17.5468 59.2545 17.5592 64.646C17.5592 65.1392 17.421 65.2925 16.9278 65.2718C15.9966 65.2331 15.0613 65.2387 14.1287 65.2718C13.6769 65.287 13.5498 65.1337 13.5526 64.6957C13.5662 62.524 13.5647 60.3523 13.5632 58.183V58.1823C13.5627 57.4979 13.5623 56.8137 13.5623 56.1299V55.551L13.4448 55.5054C13.4032 55.5684 13.3605 55.6288 13.318 55.689L13.3179 55.689C13.2672 55.7608 13.2166 55.8323 13.1685 55.9074C11.9076 57.9632 10.6476 60.02 9.38848 62.0776C8.98506 62.7366 8.73914 62.738 8.33295 62.0776C7.08123 60.0365 5.83135 57.9945 4.58332 55.9516C4.48797 55.7718 4.34991 55.6181 4.18128 55.504C4.17893 55.5508 4.17615 55.5978 4.17336 55.6448L4.17336 55.6449L4.17336 55.6449C4.16628 55.7643 4.15917 55.8842 4.15917 56.0041C4.15917 56.7701 4.1583 57.536 4.15743 58.3019C4.15501 60.4289 4.15259 62.5558 4.16884 64.6819C4.16884 65.1585 4.03068 65.2953 3.56371 65.2815C2.77642 65.2579 1.98494 65.2623 1.17976 65.2668H1.17958H1.17911C0.854106 65.2686 0.526869 65.2704 0.196777 65.2704V47.9149H2.30923C2.48042 47.9149 2.66027 47.9015 2.84085 47.8879C3.30148 47.8534 3.76684 47.8185 4.10529 48.0061C4.43603 48.1894 4.64284 48.592 4.8481 48.9915C4.93523 49.1611 5.02207 49.3302 5.11799 49.4817C6.17842 51.2149 7.24297 52.9491 8.33654 54.7306L8.33694 54.7312L8.85795 55.58ZM43.7611 51.7516H52.5715V47.897H39.8015V65.1875C39.8947 65.2133 39.9899 65.2309 40.0861 65.24C42.1075 65.2449 44.1292 65.2449 46.1511 65.2449C48.1727 65.2449 50.1946 65.2449 52.2165 65.2497C52.577 65.2511 52.6226 65.0812 52.6226 64.7883C52.621 64.6533 52.6191 64.5183 52.6173 64.3834C52.6064 63.6062 52.5956 62.8286 52.6309 62.0541C52.653 61.5415 52.5066 61.3965 51.9802 61.3965C50.7043 61.4075 49.4284 61.4075 48.1525 61.4075C46.8766 61.4075 45.6007 61.4075 44.3248 61.4186C43.8648 61.4227 43.7349 61.2735 43.7542 60.8369C43.7776 60.185 43.7668 59.5245 43.7563 58.875C43.7556 58.8321 43.7549 58.7893 43.7542 58.7466C43.7501 58.4744 43.8606 58.3528 44.1286 58.3639C44.3066 58.3712 44.4827 58.3688 44.6618 58.3664C44.7525 58.3651 44.844 58.3639 44.9369 58.3639C45.3588 58.3639 45.7807 58.364 46.2026 58.3641C48.1708 58.3647 50.1391 58.3653 52.1073 58.3528C52.2745 58.3514 52.5853 58.205 52.5853 58.1207C52.6118 57.1831 52.6101 56.2455 52.6083 55.2769C52.6079 55.0324 52.6074 54.7859 52.6074 54.5369H48.4047C48.084 54.5369 47.7637 54.5373 47.4437 54.5378C46.378 54.5392 45.3155 54.5407 44.253 54.5258C44.0886 54.5231 43.7832 54.3725 43.7832 54.2799C43.7544 53.6383 43.757 52.9943 43.7596 52.3343C43.7604 52.1416 43.7611 51.9474 43.7611 51.7516Z" fill="black"/>
</g>
<defs>
<clipPath id="clip0_64_1809">
<rect width="200" height="94.4039" fill="white" transform="translate(0.196777)"/>
</clipPath>
</defs>
</svg>
