<svg width="219" height="41" viewBox="0 0 219 41" fill="none" xmlns="http://www.w3.org/2000/svg">
<g clip-path="url(#clip0_64_1818)">
<path d="M214.823 1.50863C215.466 1.50863 216.082 1.76384 216.536 2.21812C216.99 2.67241 217.246 3.28855 217.246 3.93101V36.4728C217.245 37.115 216.989 37.7306 216.535 38.1847C216.081 38.6388 215.465 38.8943 214.823 38.8952H3.92588C3.2837 38.8943 2.66808 38.6388 2.21399 38.1847C1.75991 37.7306 1.5044 37.115 1.5035 36.4728V3.93101C1.5035 3.28855 1.75871 2.67241 2.213 2.21812C2.66728 1.76384 3.28342 1.50863 3.92588 1.50863H214.823ZM214.823 0.201904H3.92588C2.93714 0.202808 1.98915 0.595984 1.29 1.29513C0.590857 1.99428 0.197681 2.94226 0.196777 3.93101L0.196777 36.4728C0.197681 37.4615 0.590857 38.4095 1.29 39.1087C1.98915 39.8078 2.93714 40.201 3.92588 40.2019H214.823C215.812 40.201 216.76 39.8078 217.459 39.1087C218.158 38.4095 218.551 37.4615 218.552 36.4728V3.93101C218.551 2.94226 218.158 1.99428 217.459 1.29513C216.76 0.595984 215.812 0.202808 214.823 0.201904V0.201904Z" fill="url(#paint0_linear_64_1818)"/>
<path d="M58.9754 9.75484C57.3377 8.40376 55.0825 7.72709 52.2098 7.72482H42.6567C42.5415 7.72006 42.4266 7.7398 42.3195 7.78273C42.2125 7.82566 42.1158 7.89081 42.0358 7.97388C41.9587 8.0636 41.9 8.16763 41.8631 8.28003C41.8263 8.39243 41.8119 8.51099 41.8208 8.62894V31.8088C41.8183 31.9212 41.8391 32.0329 41.8819 32.1368C41.9248 32.2408 41.9888 32.3347 42.0699 32.4126C42.1482 32.4932 42.2422 32.5569 42.346 32.5997C42.4499 32.6426 42.5614 32.6636 42.6738 32.6617H46.0856C46.3209 32.6716 46.551 32.5897 46.727 32.4331C46.811 32.3531 46.8768 32.2559 46.9198 32.1482C46.9628 32.0404 46.982 31.9246 46.9761 31.8088V23.4771H52.2098C55.0825 23.4771 57.3377 22.8186 58.9754 21.5017C60.613 20.1847 61.4319 18.2434 61.4319 15.6777C61.4319 13.0939 60.613 11.1196 58.9754 9.75484ZM55.1849 18.5095C54.4581 19.1646 53.4107 19.4887 52.0323 19.4887H46.9146V11.7269H52.0323C53.4585 11.7269 54.5207 12.068 55.219 12.7504C55.9013 13.4328 56.2698 14.3983 56.2698 15.6334C56.2698 16.8685 55.9082 17.8579 55.1849 18.5095ZM82.3258 22.4433C83.7368 21.9915 84.966 21.0995 85.8331 19.8981C86.6867 18.6145 87.1163 17.0955 87.0613 15.5549C87.0613 13.0529 86.2368 11.1298 84.5878 9.78555C82.9387 8.44129 80.654 7.76462 77.7335 7.75552H68.5216C68.4058 7.75027 68.2902 7.76978 68.1826 7.81272C68.0749 7.85567 67.9776 7.92108 67.8972 8.00458C67.7401 8.18046 67.6569 8.41028 67.6652 8.646V31.8088C67.6648 31.9212 67.6866 32.0326 67.7296 32.1365C67.7725 32.2404 67.8356 32.3348 67.9152 32.4141C67.9949 32.4934 68.0895 32.5562 68.1936 32.5987C68.2977 32.6412 68.4092 32.6626 68.5216 32.6617H71.7969C71.9152 32.666 72.033 32.6461 72.1433 32.6033C72.2536 32.5605 72.354 32.4956 72.4383 32.4126C72.5189 32.3343 72.5826 32.2404 72.6254 32.1365C72.6683 32.0326 72.6894 31.9211 72.6874 31.8088V23.2792H77.5663L82.121 31.72C82.2713 31.9779 82.4639 32.2086 82.6908 32.4024C82.9474 32.5926 83.2625 32.6867 83.5813 32.6685H86.8566C87.0505 32.6683 87.2365 32.5924 87.3752 32.457C87.45 32.3895 87.5094 32.3068 87.5495 32.2144C87.5895 32.122 87.6092 32.022 87.6072 31.9213C87.6016 31.785 87.5642 31.6518 87.4981 31.5324L82.3258 22.4433ZM80.8314 18.2605C80.1172 18.8882 79.0481 19.2033 77.6243 19.2055H72.6772V11.7269H77.6243C79.0504 11.7269 80.1195 12.0533 80.8314 12.7061C81.541 13.3611 81.8993 14.2891 81.8993 15.5003C81.8993 16.7115 81.541 17.6327 80.8314 18.2605ZM110.739 28.5198H98.7979V22.0885H109.692C109.928 22.0968 110.157 22.0137 110.333 21.8565C110.417 21.7765 110.483 21.6793 110.526 21.5716C110.569 21.4638 110.588 21.348 110.582 21.2322V18.9906C110.587 18.8724 110.567 18.7545 110.524 18.6442C110.481 18.5339 110.416 18.4335 110.333 18.3492C110.248 18.2669 110.148 18.2024 110.038 18.1597C109.928 18.1169 109.81 18.0966 109.692 18.1001H98.7979V11.8702H110.477C110.711 11.879 110.94 11.7957 111.115 11.6382C111.199 11.5582 111.264 11.461 111.307 11.3532C111.35 11.2454 111.37 11.1297 111.364 11.0138V8.62553C111.369 8.50747 111.35 8.3896 111.307 8.27939C111.264 8.16918 111.199 8.06904 111.116 7.98532C111.032 7.90159 110.933 7.83611 110.822 7.79303C110.712 7.74995 110.595 7.7302 110.477 7.73505H94.7823C94.667 7.73029 94.5521 7.75003 94.4451 7.79297C94.338 7.8359 94.2413 7.90105 94.1613 7.98411C94.0029 8.15924 93.9196 8.38958 93.9293 8.62553V31.8088C93.9267 31.9212 93.9475 32.0329 93.9904 32.1368C94.0333 32.2408 94.0973 32.3347 94.1784 32.4126C94.2567 32.4932 94.3507 32.5569 94.4545 32.5997C94.5584 32.6426 94.6699 32.6636 94.7823 32.6617H110.739C110.975 32.6716 111.205 32.5897 111.381 32.4331C111.465 32.3531 111.53 32.2559 111.573 32.1482C111.616 32.0404 111.636 31.9246 111.63 31.8088V29.3864C111.635 29.271 111.616 29.1558 111.573 29.0487C111.53 28.9415 111.464 28.8449 111.381 28.7654C111.207 28.6027 110.977 28.5145 110.739 28.5198ZM140.681 7.72482H137.832C137.608 7.72608 137.389 7.79084 137.2 7.9116C137.011 8.03237 136.86 8.20419 136.765 8.40718L129.9 21.1639L123.022 8.41741C122.926 8.21442 122.775 8.0426 122.586 7.92184C122.397 7.80108 122.178 7.73632 121.954 7.73505H119.071C118.955 7.7298 118.84 7.7493 118.732 7.79225C118.624 7.8352 118.527 7.90061 118.447 7.98411C118.29 8.16033 118.208 8.39022 118.218 8.62553V31.8088C118.217 31.9209 118.239 32.032 118.282 32.1357C118.325 32.2394 118.387 32.3336 118.467 32.4129C118.546 32.4922 118.64 32.555 118.744 32.5977C118.848 32.6404 118.959 32.6622 119.071 32.6617H122.142C122.257 32.6674 122.372 32.648 122.479 32.605C122.586 32.562 122.683 32.4964 122.762 32.4126C122.916 32.2498 123 32.0328 122.994 31.8088V16.5L127.942 25.8995C128.051 26.1313 128.224 26.3276 128.44 26.4658C128.656 26.604 128.907 26.6785 129.163 26.6808H130.657C130.909 26.6835 131.155 26.6104 131.365 26.4711C131.574 26.3317 131.736 26.1325 131.831 25.8995L136.771 16.5V31.8088C136.771 31.9209 136.793 32.032 136.835 32.1357C136.878 32.2394 136.941 32.3336 137.02 32.4129C137.099 32.4922 137.194 32.555 137.297 32.5977C137.401 32.6404 137.512 32.6622 137.624 32.6617H140.695C140.93 32.6713 141.16 32.5894 141.336 32.4331C141.42 32.3527 141.485 32.2555 141.528 32.1478C141.571 32.0401 141.591 31.9245 141.585 31.8088V8.62894C141.591 8.51059 141.571 8.39241 141.528 8.28196C141.486 8.17151 141.42 8.0712 141.336 7.98742C141.253 7.90364 141.152 7.83824 141.042 7.79538C140.931 7.75251 140.813 7.73313 140.695 7.73846L140.681 7.72482ZM153.53 7.72482H150.118C149.894 7.72022 149.678 7.8035 149.514 7.95682C149.43 8.0368 149.365 8.134 149.322 8.24176C149.279 8.34953 149.259 8.46531 149.265 8.58118V31.7815C149.265 31.8936 149.287 32.0047 149.329 32.1084C149.372 32.2121 149.435 32.3063 149.514 32.3856C149.593 32.4649 149.688 32.5277 149.791 32.5704C149.895 32.6131 150.006 32.6349 150.118 32.6344H153.53C153.646 32.6397 153.761 32.6202 153.869 32.5772C153.977 32.5343 154.074 32.4689 154.154 32.3853C154.307 32.222 154.389 32.005 154.383 31.7815V8.58118C154.389 8.46705 154.372 8.35284 154.333 8.2455C154.294 8.13817 154.233 8.03995 154.154 7.95682C153.986 7.80508 153.764 7.72654 153.537 7.73846L153.53 7.72482ZM178.941 28.5198H166.979V22.0885H177.873C178.109 22.0968 178.339 22.0137 178.515 21.8565C178.598 21.7761 178.664 21.6789 178.707 21.5712C178.75 21.4635 178.769 21.3479 178.764 21.2322V18.9906C178.769 18.8722 178.75 18.7541 178.707 18.6436C178.664 18.5332 178.599 18.4329 178.515 18.3491C178.431 18.2653 178.331 18.1999 178.22 18.157C178.11 18.1142 177.992 18.0948 177.873 18.1001H166.979V11.8702H178.658C178.893 11.879 179.122 11.7957 179.296 11.6382C179.38 11.5582 179.446 11.461 179.489 11.3532C179.532 11.2454 179.551 11.1297 179.545 11.0138V8.62553C179.55 8.50747 179.531 8.3896 179.488 8.27939C179.446 8.16918 179.381 8.06904 179.297 7.98532C179.214 7.90159 179.114 7.83611 179.004 7.79303C178.894 7.74995 178.776 7.7302 178.658 7.73505H162.94C162.825 7.73029 162.71 7.75003 162.603 7.79297C162.496 7.8359 162.399 7.90105 162.319 7.98411C162.16 8.15924 162.077 8.38958 162.087 8.62553V31.8088C162.086 31.9209 162.108 32.032 162.151 32.1357C162.194 32.2394 162.256 32.3336 162.336 32.4129C162.415 32.4922 162.509 32.555 162.613 32.5977C162.717 32.6404 162.828 32.6622 162.94 32.6617H178.941C179.177 32.6716 179.407 32.5897 179.583 32.4331C179.666 32.3527 179.732 32.2555 179.775 32.1478C179.817 32.0401 179.837 31.9245 179.832 31.8088V29.3864C179.836 29.2711 179.817 29.1562 179.774 29.0492C179.731 28.9421 179.666 28.8454 179.583 28.7654C179.409 28.6027 179.179 28.5145 178.941 28.5198ZM206.236 31.5119L201.084 22.4433C202.485 21.9864 203.704 21.0948 204.564 19.8981C205.427 18.6177 205.866 17.0984 205.819 15.5549C205.819 13.0529 204.995 11.1298 203.346 9.78555C201.697 8.44129 199.412 7.76462 196.492 7.75552H187.28C187.164 7.75027 187.048 7.76978 186.941 7.81272C186.833 7.85567 186.736 7.92108 186.655 8.00458C186.498 8.18046 186.415 8.41028 186.423 8.646V31.8088C186.423 31.9212 186.445 32.0326 186.488 32.1365C186.531 32.2404 186.594 32.3348 186.673 32.4141C186.753 32.4934 186.848 32.5562 186.952 32.5987C187.056 32.6412 187.167 32.6626 187.28 32.6617H190.555C190.673 32.6664 190.791 32.6467 190.902 32.6038C191.012 32.561 191.112 32.4959 191.196 32.4126C191.277 32.3343 191.341 32.2404 191.383 32.1365C191.426 32.0326 191.447 31.9211 191.445 31.8088V23.2792H196.324L200.883 31.72C201.031 31.9784 201.222 32.2093 201.449 32.4024C201.705 32.5926 202.021 32.6867 202.339 32.6685H205.618C205.811 32.6681 205.996 32.5922 206.133 32.457C206.208 32.3895 206.268 32.3068 206.308 32.2144C206.348 32.122 206.367 32.022 206.365 31.9213C206.358 31.7818 206.317 31.6461 206.246 31.5256L206.236 31.5119ZM199.589 18.2605C198.878 18.8882 197.809 19.2033 196.382 19.2055H191.435V11.7269H196.376C197.802 11.7269 198.871 12.0533 199.583 12.7061C200.292 13.3611 200.651 14.2891 200.651 15.5003C200.651 16.7115 200.299 17.6327 199.589 18.2605Z" fill="url(#paint1_linear_64_1818)"/>
<path opacity="0.5" d="M34.2805 19.8777C34.1402 19.5706 33.8995 19.3203 33.5981 19.1681L14.2191 7.97735C13.2365 7.41099 12.4313 7.875 12.4313 9.0009V31.3892C12.4313 32.5253 13.2365 32.9893 14.2191 32.4127L33.5981 21.222C33.8998 21.0684 34.1403 20.817 34.2805 20.5089C34.3212 20.4069 34.342 20.298 34.3419 20.1882C34.3401 20.0819 34.3193 19.9767 34.2805 19.8777Z" fill="url(#paint2_linear_64_1818)"/>
<path opacity="0.5" d="M34.2805 19.8777C34.1402 19.5706 33.8995 19.3203 33.5981 19.1681L14.2191 7.97735C13.2365 7.41099 12.4313 7.875 12.4313 9.0009V26.8139L34.2668 20.5055C34.3075 20.4035 34.3284 20.2946 34.3282 20.1848C34.3304 20.0804 34.3143 19.9765 34.2805 19.8777Z" fill="url(#paint3_linear_64_1818)"/>
<path opacity="0.5" d="M34.2805 19.8777C34.1402 19.5706 33.8995 19.3203 33.5981 19.1681L14.2191 7.97735C13.2365 7.41099 12.4313 7.875 12.4313 9.0009V20.1984H34.3385C34.339 20.0889 34.3194 19.9802 34.2805 19.8777Z" fill="url(#paint4_linear_64_1818)"/>
<path d="M12.4348 13.5727L34.2703 19.8777C34.13 19.5706 33.8894 19.3203 33.588 19.1681L14.2089 7.97735C13.2263 7.41099 12.4211 7.875 12.4211 9.0009L12.4348 13.5727Z" fill="url(#paint5_linear_64_1818)"/>
</g>
<defs>
<linearGradient id="paint0_linear_64_1818" x1="109.375" y1="40.1234" x2="109.375" y2="0.29061" gradientUnits="userSpaceOnUse">
<stop stop-color="#D49143"/>
<stop offset="0.13" stop-color="#E7AB5D"/>
<stop offset="0.26" stop-color="#F4BE6F"/>
<stop offset="0.39" stop-color="#FCC97A"/>
<stop offset="0.54" stop-color="#FFCD7E"/>
<stop offset="1" stop-color="#DE984D"/>
</linearGradient>
<linearGradient id="paint1_linear_64_1818" x1="59790.6" y1="565.281" x2="59790.6" y2="2377.65" gradientUnits="userSpaceOnUse">
<stop stop-color="#D49143"/>
<stop offset="0.13" stop-color="#E7AB5D"/>
<stop offset="0.26" stop-color="#F4BE6F"/>
<stop offset="0.39" stop-color="#FCC97A"/>
<stop offset="0.54" stop-color="#FFCD7E"/>
<stop offset="1" stop-color="#DE984D"/>
</linearGradient>
<linearGradient id="paint2_linear_64_1818" x1="-644.011" y1="-553.58" x2="1942.64" y2="1720.23" gradientUnits="userSpaceOnUse">
<stop stop-color="#D49143"/>
<stop offset="0.13" stop-color="#E7AB5D"/>
<stop offset="0.26" stop-color="#F4BE6F"/>
<stop offset="0.39" stop-color="#FCC97A"/>
<stop offset="0.54" stop-color="#FFCD7E"/>
<stop offset="1" stop-color="#DE984D"/>
</linearGradient>
<linearGradient id="paint3_linear_64_1818" x1="698.908" y1="601.644" x2="1623.62" y2="1662.98" gradientUnits="userSpaceOnUse">
<stop stop-color="#D49143"/>
<stop offset="0.13" stop-color="#E7AB5D"/>
<stop offset="0.26" stop-color="#F4BE6F"/>
<stop offset="0.39" stop-color="#FCC97A"/>
<stop offset="0.54" stop-color="#FFCD7E"/>
<stop offset="1" stop-color="#DE984D"/>
</linearGradient>
<linearGradient id="paint4_linear_64_1818" x1="805.473" y1="335.01" x2="1325.69" y2="1249.45" gradientUnits="userSpaceOnUse">
<stop stop-color="#D49143"/>
<stop offset="0.13" stop-color="#E7AB5D"/>
<stop offset="0.26" stop-color="#F4BE6F"/>
<stop offset="0.39" stop-color="#FCC97A"/>
<stop offset="0.54" stop-color="#FFCD7E"/>
<stop offset="1" stop-color="#DE984D"/>
</linearGradient>
<linearGradient id="paint5_linear_64_1818" x1="909.112" y1="267.456" x2="1404.14" y2="1158.24" gradientUnits="userSpaceOnUse">
<stop stop-color="#D49143"/>
<stop offset="0.13" stop-color="#E7AB5D"/>
<stop offset="0.26" stop-color="#F4BE6F"/>
<stop offset="0.39" stop-color="#FCC97A"/>
<stop offset="0.54" stop-color="#FFCD7E"/>
<stop offset="1" stop-color="#DE984D"/>
</linearGradient>
<clipPath id="clip0_64_1818">
<rect width="218.355" height="40" fill="white" transform="translate(0.196777 0.201904)"/>
</clipPath>
</defs>
</svg>
