<svg width="240" height="41" viewBox="0 0 240 41" fill="none" xmlns="http://www.w3.org/2000/svg">
<path fill-rule="evenodd" clip-rule="evenodd" d="M186.068 0.201904H180.952V5.28924H175.879V10.1437H180.959V24.2557C180.95 27.3452 181.907 30.3603 183.696 32.8792C185.485 35.3981 188.016 37.2948 190.936 38.3041C192.591 38.9259 194.359 39.1857 196.122 39.0661V34.0281L195.65 33.9788C189.779 33.5131 186.089 29.5194 186.089 23.6347V10.1085H196.137V5.28219H186.068V0.201904ZM200.617 5.28906H205.98C206.133 5.32507 206.276 5.39516 206.398 5.49412C206.52 5.59308 206.618 5.71836 206.685 5.86059C208.628 9.81663 210.55 13.7868 212.45 17.7711L219.83 33.0684L222.653 27.2401C226.091 20.0995 229.535 12.9636 232.983 5.83237C233.096 5.59953 233.392 5.30318 233.611 5.29613C234.776 5.26816 235.941 5.27714 237.151 5.28645C237.772 5.29124 238.406 5.29613 239.058 5.29613L237.019 9.49442C232.348 19.1846 227.674 28.8748 222.999 38.565C222.947 38.7505 222.831 38.912 222.673 39.0215C222.514 39.1311 222.323 39.1817 222.131 39.1647C220.578 39.1647 219.026 39.1647 217.474 39.1294C217.31 39.1113 217.152 39.0561 217.013 38.9681C216.874 38.8801 216.756 38.7616 216.669 38.6214C211.857 28.6866 207.062 18.7424 202.282 8.78882C201.847 7.88495 201.417 6.97656 200.962 6.01657L200.961 6.01564L200.617 5.28906ZM27.7603 11.7173C28.9661 10.0172 30.5019 8.57742 32.2761 7.4837C34.3765 6.19669 36.7624 5.44881 39.2215 5.3066C41.6807 5.1644 44.1369 5.63228 46.3716 6.66861C48.6063 7.70495 50.5502 9.27761 52.0303 11.2467C53.5104 13.2157 54.4808 15.5201 54.8552 17.9547C54.9478 18.6209 54.9879 19.2933 54.9751 19.9657V38.2194V39.0379H49.7961V38.0713V20.3255C49.7961 15.3158 46.0776 11.0258 41.3289 10.5319C38.9144 10.2261 36.4728 10.8328 34.4824 12.2333C32.4919 13.6338 31.0962 15.727 30.5686 18.1029C30.4086 18.8733 30.3329 19.6588 30.3428 20.4455V37.9443V39.0309H25.1425V38.0995C25.1425 36.1349 25.1347 34.1703 25.1269 32.2071V32.2067V32.2063V32.2059V32.2055V32.2052C25.1112 28.2813 25.0955 24.3626 25.1425 20.4596C25.19 18.0608 24.3532 15.7283 22.7918 13.9066C21.2303 12.0849 19.0533 10.9013 16.6754 10.5813C14.247 10.2407 11.7801 10.8385 9.77705 12.253C7.77397 13.6675 6.38534 15.7922 5.8939 18.1947C5.71771 18.9629 5.63245 19.7491 5.63989 20.5372V38.1207V39.0873H0.55254V38.1912V20.2691C0.53961 18.2144 0.953134 16.1794 1.76696 14.2928C2.5808 12.4061 3.77723 10.7088 5.28062 9.30818C6.78401 7.90758 8.56164 6.83415 10.5011 6.15575C12.4406 5.47735 14.4998 5.20875 16.5484 5.36692C18.6941 5.49964 20.7839 6.10483 22.6684 7.1392C24.553 8.17357 26.1857 9.61156 27.4498 11.3504L27.4499 11.3504C27.5345 11.4633 27.6192 11.5762 27.7109 11.682C27.7221 11.6949 27.7303 11.7046 27.7361 11.7117C27.7341 11.706 27.7383 11.704 27.7603 11.7173ZM96.3301 22.7529C96.5277 32.1091 88.5262 40.2799 78.6902 40.1458C76.3804 40.1497 74.0929 39.6942 71.9607 38.8058C69.8285 37.9174 67.8943 36.6139 66.2706 34.9711C64.6469 33.3283 63.3661 31.3789 62.5027 29.2365C61.6393 27.0941 61.2105 24.8014 61.2414 22.4918C61.2723 20.1822 61.7622 17.9017 62.6825 15.7832C63.6029 13.6646 64.9354 11.7503 66.6024 10.1514C68.2695 8.55261 70.2378 7.30126 72.393 6.47019C74.5481 5.63913 76.847 5.24493 79.1559 5.31055C81.4292 5.32716 83.6769 5.79161 85.7705 6.67735C87.8642 7.56309 89.7627 8.85275 91.3577 10.4726C92.9527 12.0925 94.2128 14.0108 95.066 16.1179C95.9192 18.225 96.3487 20.4796 96.3301 22.7529ZM127.835 23.8885H157.287C157.601 19.8008 156.444 15.7352 154.025 12.4255C151.605 9.11578 148.082 6.77989 144.092 5.8394C139.69 4.75699 135.04 5.4314 131.127 7.71965C127.214 10.0079 124.346 13.7301 123.131 18.0971C121.916 22.4641 122.45 27.1326 124.619 31.1129C126.788 35.0932 130.422 38.0723 134.75 39.4187C144.106 42.2411 152.489 36.9985 155.396 30.6481L150.993 28.2209C149.641 30.8823 147.376 32.9681 144.612 34.0966C141.848 35.2251 138.771 35.321 135.942 34.3666C130.559 32.5109 127.835 27.4165 127.835 23.8885ZM128.361 18.9494H151.487C151.084 15.1392 145.665 10.8209 140.973 10.4822C133.884 10.0594 129.356 15.0635 128.361 18.9494ZM108.008 39.1012H102.956C102.956 38.9367 102.942 38.7855 102.93 38.6398C102.918 38.5041 102.906 38.373 102.906 38.2403V20.3323C102.854 16.8054 104.062 13.3756 106.312 10.6594C108.563 7.94333 111.708 6.11913 115.184 5.51483C115.802 5.39776 116.429 5.35217 117.095 5.30381C117.432 5.2793 117.779 5.25408 118.14 5.21849V10.0589C118.14 10.207 117.681 10.4469 117.434 10.4611C115.895 10.5171 114.391 10.9433 113.051 11.7036C111.711 12.4639 110.574 13.5358 109.736 14.8287C108.596 16.5565 108.02 18.595 108.085 20.664V38.071L108.008 39.1012ZM169.761 38.7758C170.367 38.1566 170.702 37.3219 170.693 36.4555C170.688 36.0264 170.599 35.6025 170.431 35.2079C170.262 34.8134 170.018 34.4558 169.711 34.1557C169.404 33.8556 169.042 33.6189 168.644 33.459C168.245 33.2991 167.82 33.2192 167.391 33.2238C166.962 33.2285 166.538 33.3176 166.143 33.486C165.749 33.6545 165.391 33.899 165.091 34.2056C164.791 34.5123 164.554 34.875 164.394 35.2731C164.234 35.6713 164.154 36.097 164.159 36.526C164.168 37.3925 164.522 38.2197 165.141 38.8257C165.76 39.4318 166.595 39.767 167.461 39.7576C168.328 39.7483 169.155 39.3951 169.761 38.7758Z" fill="#43A5FA"/>
</svg>
