<svg width="106" height="61" viewBox="0 0 106 61" fill="none" xmlns="http://www.w3.org/2000/svg">
<path d="M62.5665 57.5662L70.8808 43.059H54.2308L62.5665 57.5662ZM41.8665 57.5662L50.1808 43.059H33.5522L41.8665 57.5662ZM52.2165 43.9805L60.5522 58.4019H43.9022L52.2165 43.9805ZM72.9165 39.6948L81.2308 25.2733H64.6022L72.9165 39.6948ZM62.9094 26.5805L71.2665 40.9162H54.5951L62.9094 26.5805ZM31.5165 39.609L23.2022 25.1876H39.8308L31.5165 39.609ZM41.5237 26.5805L33.2094 40.9162H49.838L41.5237 26.5805ZM14.9522 30.2019L0.552246 21.9519V38.5805L14.9522 30.2019ZM14.9522 51.8233L0.552246 43.5733V60.2019L14.9522 51.8233ZM0.552246 41.109L14.9522 32.7948V49.4876L0.552246 41.109ZM14.9522 8.55905L0.552246 0.201904V16.8519L14.9522 8.55905ZM105.552 30.2019L91.1522 21.8876V38.5162L105.552 30.2019ZM105.552 51.8233L91.1522 43.509V60.2019L105.552 51.8233ZM91.1522 41.109L105.552 32.7519V49.4876L91.1522 41.109ZM105.552 8.51619L91.1522 0.201904V16.8519L105.552 8.51619Z" fill="#EA0042"/>
</svg>
