<svg width="165" height="61" viewBox="0 0 165 61" fill="none" xmlns="http://www.w3.org/2000/svg">
<path d="M98.7919 51.7589L101.135 48.356L111.248 59.6562H124.988L107.106 39.6883L123.062 16.5744H110.638L98.7919 33.7493V1.42191H88.5832V59.6562H98.7919V51.7589ZM59.434 51.7589L61.7775 48.3881L71.8899 59.6883H85.6298L67.7486 39.6883L83.7036 16.5744H71.2799L59.434 33.7493V1.42191H49.2254V59.6562H59.434V51.7589ZM119.338 37.5695C119.338 50.0575 129.418 60.2019 141.842 60.2019C154.265 60.2019 164.346 50.0575 164.346 37.5695C164.346 25.0816 154.265 14.9371 141.842 14.9371C138.878 14.9443 135.944 15.5355 133.208 16.677C130.473 17.8185 127.989 19.4879 125.899 21.5898C123.809 23.6916 122.154 26.1848 121.028 28.9267C119.902 31.6686 119.328 34.6055 119.338 37.5695ZM22.5159 14.9371C19.5519 14.9443 16.6183 15.5355 13.8828 16.677C11.1474 17.8185 8.66371 19.4879 6.57377 21.5898C4.48383 23.6916 2.8286 26.1848 1.70269 28.9267C0.576772 31.6686 0.00225159 34.6055 0.0119619 37.5695C0.0119619 50.0575 10.0922 60.2019 22.5159 60.2019C34.9397 60.2019 45.0199 50.0575 45.0199 37.5695C45.0351 34.6039 44.4644 31.6646 43.3404 28.9202C42.2165 26.1758 40.5615 23.6805 38.4704 21.5775C36.3794 19.4745 33.8935 17.8054 31.1556 16.6658C28.4176 15.5263 25.4816 14.9388 22.5159 14.9371ZM22.3233 0.202005C21.3061 0.195647 20.3099 0.491481 19.461 1.052C18.6121 1.61252 17.9487 2.41248 17.5551 3.35046C17.1614 4.28844 17.0551 5.3222 17.2496 6.32068C17.4442 7.31915 17.9308 8.23738 18.6478 8.95893C19.3649 9.68049 20.28 10.1729 21.2773 10.3737C22.2745 10.5745 23.3089 10.4747 24.2494 10.0869C25.1898 9.69907 25.9939 9.04075 26.5597 8.19539C27.1256 7.35003 27.4276 6.35569 27.4276 5.33843C27.4319 4.66543 27.303 3.99823 27.0484 3.37523C26.7937 2.75224 26.4184 2.18575 25.944 1.70836C25.4696 1.23097 24.9055 0.852118 24.2841 0.593596C23.6627 0.335075 22.9963 0.201991 22.3233 0.202005ZM34.8113 0.202005C33.794 0.195647 32.7978 0.491481 31.9489 1.052C31.1 1.61252 30.4367 2.41248 30.043 3.35046C29.6493 4.28844 29.543 5.3222 29.7375 6.32068C29.9321 7.31915 30.4187 8.23738 31.1358 8.95893C31.8528 9.68049 32.768 10.1729 33.7652 10.3737C34.7625 10.5745 35.7969 10.4747 36.7373 10.0869C37.6777 9.69907 38.4818 9.04075 39.0477 8.19539C39.6135 7.35003 39.9156 6.35569 39.9156 5.33843C39.9198 4.66543 39.7909 3.99823 39.5363 3.37523C39.2817 2.75224 38.9064 2.18575 38.432 1.70836C37.9576 1.23097 37.3934 0.852118 36.772 0.593596C36.1507 0.335075 35.4843 0.201991 34.8113 0.202005ZM10.028 0.202005C9.01077 0.195647 8.01455 0.491481 7.16566 1.052C6.31676 1.61252 5.65342 2.41248 5.25973 3.35046C4.86604 4.28844 4.75973 5.3222 4.95428 6.32068C5.14883 7.31915 5.63548 8.23738 6.35252 8.95893C7.06957 9.68049 7.98473 10.1729 8.98196 10.3737C9.9792 10.5745 11.0136 10.4747 11.954 10.0869C12.8945 9.69907 13.6986 9.04075 14.2644 8.19539C14.8302 7.35003 15.1323 6.35569 15.1323 5.33843C15.1366 4.66543 15.0077 3.99823 14.753 3.37523C14.4984 2.75224 14.1231 2.18575 13.6487 1.70836C13.1743 1.23097 12.6102 0.852118 11.9888 0.593596C11.3674 0.335075 10.701 0.201991 10.028 0.202005ZM10.2206 37.5695C10.2333 35.1405 10.9652 32.7697 12.3239 30.7562C13.6826 28.7427 15.6073 27.1768 17.855 26.256C20.1028 25.3352 22.5729 25.1009 24.9538 25.5825C27.3346 26.0642 29.5194 27.2402 31.2325 28.9623C32.9456 30.6843 34.1103 32.8753 34.5795 35.2585C35.0487 37.6418 34.8015 40.1107 33.8691 42.3537C32.9366 44.5966 31.3607 46.5131 29.3401 47.8613C27.3196 49.2095 24.945 49.929 22.5159 49.929C19.2483 49.9146 16.1196 48.6058 13.8151 46.2892C11.5106 43.9726 10.218 40.8372 10.2206 37.5695ZM129.546 37.5695C129.559 35.1405 130.291 32.7697 131.65 30.7562C133.008 28.7427 134.933 27.1768 137.181 26.256C139.428 25.3352 141.899 25.1009 144.279 25.5825C146.66 26.0642 148.845 27.2402 150.558 28.9623C152.271 30.6843 153.436 32.8753 153.905 35.2585C154.374 37.6418 154.127 40.1107 153.195 42.3537C152.262 44.5966 150.686 46.5131 148.666 47.8613C146.645 49.2095 144.271 49.929 141.842 49.929C138.574 49.9146 135.445 48.6058 133.141 46.2892C130.836 43.9726 129.544 40.8372 129.546 37.5695Z" fill="#6B44C2"/>
</svg>
