<svg width="223" height="61" viewBox="0 0 223 61" fill="none" xmlns="http://www.w3.org/2000/svg">
<path d="M30.5273 56.3345C27.1876 56.9209 23.7891 57.0968 20.2735 57.5651L9.55063 26.1591V58.913C6.21091 59.2644 3.1641 59.7332 0 60.2019V0.201904H8.90649L21.0937 34.2454V0.201904H30.5273V56.3345ZM48.9844 22.1746C52.6175 22.1746 58.1838 21.9987 61.5235 21.9987V31.3735C57.3632 31.3735 52.5002 31.3735 48.9844 31.5494V45.4949C54.4924 45.1435 60.0002 44.6743 65.5663 44.4985V53.5214L39.6092 55.5726V0.201904H65.5663V9.57692H48.9844V22.1746V22.1746ZM100.43 9.57714H90.7031V52.7021C87.539 52.7021 84.3749 52.7021 81.3285 52.8189V9.57714H71.6021V0.201904H100.43L100.43 9.57714V9.57714ZM115.664 21.5302H128.496V30.905H115.664V52.1748H106.464V0.201904H132.656V9.57692H115.664V21.5302V21.5302ZM147.89 43.9714C153.223 44.0883 158.613 44.4991 163.828 44.7916V54.0495C155.449 53.5218 147.07 52.9952 138.516 52.8189V0.201904H147.89V43.9714ZM171.738 54.6941C174.726 54.8702 177.89 55.046 180.937 55.397V0.201904H171.738V54.6941V54.6941ZM222.012 0.201904L210.117 28.7371L222.012 60.2019C218.496 59.7332 214.98 59.0886 211.465 58.5026L204.727 41.1592L197.872 57.0968C194.473 56.5103 191.191 56.3345 187.794 55.8657L199.864 28.3853L188.965 0.201904H199.043L205.195 15.9637L211.758 0.201904H222.012V0.201904Z" fill="#D81F26"/>
</svg>
