<svg width="310" height="41" viewBox="0 0 310 41" fill="none" xmlns="http://www.w3.org/2000/svg">
<path fill-rule="evenodd" clip-rule="evenodd" d="M111.193 20.2396C111.193 9.14729 116.843 0.277234 126.786 0.277234C136.73 0.277234 142.379 9.14729 142.379 20.2396C142.379 31.3318 136.73 40.2019 126.786 40.2019C116.843 40.2019 111.193 31.3318 111.193 20.2396ZM126.786 34.6652C130.685 34.6652 132.436 28.0173 132.436 20.2584C132.436 12.4995 130.779 5.85162 126.786 5.85162C122.794 5.85162 121.137 12.4995 121.137 20.2584C121.137 28.0173 122.888 34.6652 126.786 34.6652ZM7.57722 0.842205V11.3883H8.14219L15.4115 0.842205H25.3927L12.0217 13.0268L12.5866 13.5917L37.0687 0.823373V9.69343L15.4115 17.4524V17.9985L37.1441 16.1153V24.4392L15.4115 22.4618V23.0079L37.1441 30.7669V39.6369L12.662 26.8874L12.097 27.4335L25.468 39.6181H15.4115L8.14219 29.0908H7.57722V39.6181H0.345581V0.823373H7.57722V0.842205ZM43.7919 0.842205H53.2081L52.662 24.119H53.2081L64.3757 0.842205H72.7373V39.6558H63.3211L63.8672 16.3601H63.3211L52.1535 39.6558H43.7919V0.842205ZM88.9896 0.842205H79.4416V39.6558H88.8578V22.4618H96.6544V39.6558H106.071V0.842205H96.6544V15.9081H88.8578L88.9896 0.842205ZM174.206 0.842205H147.408V39.6558H156.824V7.49004H164.621V39.6558H174.037L174.206 0.842205ZM179.14 20.2396C179.14 9.14729 184.79 0.277234 194.734 0.277234C204.677 0.277234 210.327 9.14729 210.327 20.2396C210.327 31.3318 204.677 40.2019 194.734 40.2019C184.79 40.2019 179.14 31.3318 179.14 20.2396ZM194.734 34.6652C198.632 34.6652 200.383 28.0173 200.383 20.2584C200.383 12.4995 198.726 5.85162 194.734 5.85162C190.741 5.85162 189.084 12.4995 189.084 20.2584C189.084 28.0173 190.835 34.6652 194.734 34.6652ZM224.865 0.766876H215.449V39.6558H223.811L234.941 16.3601H235.506L234.941 39.6558H244.357V0.842205H235.939L224.809 24.119H224.244L224.865 0.766876ZM269.442 26.2659L278.349 27.377C276.673 35.136 272.7 40.1266 264.47 40.1266C254.451 40.1266 249.404 31.2565 249.404 20.1642C249.404 9.07196 254.47 0.201904 264.47 0.201904C272.605 0.201904 276.673 5.19249 278.349 12.3865L269.442 14.6087C268.877 10.7292 267.257 5.73863 264.47 5.73863C261.137 5.73863 259.423 12.3865 259.423 20.1454C259.423 27.9044 261.137 34.5522 264.47 34.5522C267.144 34.6652 268.801 30.2207 269.385 26.3413L269.442 26.2659ZM291.664 0.842205H282.831V39.6558H291.758V22.4618H292.248L298.933 39.6558H309.197L299.442 19.6934L308.858 0.861038H299.442L292.248 18.0362H291.702V0.842205H291.664Z" fill="url(#paint0_linear_64_1808)"/>
<defs>
<linearGradient id="paint0_linear_64_1808" x1="0.345583" y1="20.3526" x2="309.197" y2="20.3527" gradientUnits="userSpaceOnUse">
<stop stop-color="#FF5406"/>
<stop offset="0.51" stop-color="#D1C20F"/>
<stop offset="1" stop-color="#ADF829"/>
</linearGradient>
</defs>
</svg>
